<?xml version="1.0" encoding="utf-8"?>
<!-- Generator: Adobe Illustrator 27.5.0, SVG Export Plug-In . SVG Version: 6.00 Build 0)  -->
<svg version="1.1" id="Layer_1" xmlns="http://www.w3.org/2000/svg" xmlns:xlink="http://www.w3.org/1999/xlink" x="0px" y="0px"
	 viewBox="0 0 166.225 389.277" style="enable-background:new 0 0 166.225 389.277;" xml:space="preserve">
<g>
	<g>
		<g>
			<path style="fill:#80000F;" d="M58.81,32.95l2.24,9.622c0,0,8.894,8.554,25.227,6.72c16.333-1.833,24.5-10.75,24.5-10.75
				l1-10.667L58.81,32.95z"/>
			<path style="opacity:0.5;fill:#A40712;" d="M103.415,35.599c2.6-1.47,5.278-2.799,8.013-4.003l0.349-3.721L58.81,32.95
				l0.687,2.952c8.864,0.664,18.637,6.04,24.038,13.604c0.891-0.041,1.803-0.108,2.742-0.213c0.9-0.101,1.767-0.231,2.618-0.373
				C91.452,42.826,97.843,38.749,103.415,35.599z"/>
			<path style="fill:#80000F;" d="M43.776,26.042l41.25,15.583l36.25-20.333c0,0-26.75-14.334-37.833-16.417
				C71.443,9.792,43.776,26.042,43.776,26.042z"/>
			<path style="opacity:0.5;fill:#A40712;" d="M83.443,4.875c-1.228,0.503-2.624,1.129-4.132,1.839
				c0.012-0.001,0.025-0.003,0.037-0.003c2.876-0.172,4.938,0.989,7.144,2.759c2.566,2.061,5.324,3.364,8.31,4.726
				c2.475,1.129,5.012,2.274,7.438,3.511c0.988,0.503,2.249,0.96,1.922,2.248c-0.667,2.621-4.629,4.496-6.713,5.672
				c-3.353,1.895-6.952,3.393-10.047,5.71c-2.207,1.652-4.652,3.888-7.439,4.477c-2.529,0.535-4.425-0.759-6.661-1.784
				c-6.82-3.127-13.393-7.064-20.004-10.619c-0.852-0.458-1.709-0.922-2.572-1.384c-4.172,2.382-6.949,4.014-6.949,4.014
				l41.25,15.583l36.25-20.333C121.276,21.292,94.526,6.958,83.443,4.875z"/>
			<g>
				<polygon style="fill:#A40712;" points="85.026,41.625 43.776,26.042 43.692,27.709 85.265,43.64 85.052,41.611 				"/>
				<polygon style="fill:#CB192F;" points="85.052,41.611 85.265,43.64 85.443,43.709 121.109,23.209 121.276,21.292 				"/>
			</g>
			<g>
				<ellipse style="fill:#FFB906;" cx="84.187" cy="19.968" rx="2.519" ry="1.329"/>
				<g>
					<path style="fill:#FFB906;" d="M118.732,28.82c-3.347-7.386-32.619-8.41-32.914-8.419l0.016-0.5
						c0.075,0.002,7.525,0.252,15.303,1.431c10.51,1.592,16.583,4.043,18.051,7.282L118.732,28.82z"/>
					<path style="fill:#FFB906;" d="M118.026,29.219l2.438,4.594c0,0,1.531-0.094,2.219-1.063c-2.188-4.375-2.188-4.375-2.188-4.375
						S118.964,28.281,118.026,29.219z"/>
					<g>
						<path style="fill:#FFB906;" d="M120.776,33.688c0,0,0.341,0.536,0.761,1.388c0.418,0.851,0.929,2.013,1.299,3.23
							c0.375,1.212,0.615,2.485,0.556,3.461c-0.018,0.487-0.147,0.888-0.279,1.138c-0.138,0.252-0.284,0.338-0.273,0.346
							c-0.008-0.005,0.103-0.127,0.185-0.384c0.089-0.255,0.112-0.64,0.087-1.098c-0.06-0.92-0.391-2.125-0.752-3.315
							c-0.368-1.191-0.772-2.378-1.08-3.27C120.977,34.286,120.776,33.688,120.776,33.688z"/>
						<path style="fill:#FFB906;" d="M121.589,33.438c0,0,0.439,0.614,0.992,1.6c0.553,0.985,1.219,2.342,1.726,3.769
							c0.254,0.711,0.47,1.439,0.627,2.133c0.161,0.693,0.237,1.357,0.281,1.925c0.036,0.282,0.006,0.547,0.007,0.778
							c0.002,0.231-0.023,0.431-0.051,0.596c-0.052,0.326-0.082,0.512-0.082,0.512s-0.006-0.188-0.015-0.517
							c0.002-0.163-0.002-0.359-0.039-0.585c-0.036-0.225-0.045-0.478-0.1-0.752c-0.176-1.099-0.6-2.523-1.1-3.921
							c-0.502-1.398-1.063-2.783-1.507-3.813C121.885,34.127,121.589,33.438,121.589,33.438z"/>
						<path style="fill:#FFB906;" d="M122.401,33.125c0,0,0.402,0.6,0.975,1.513c0.564,0.915,1.318,2.135,2.071,3.354
							c0.751,1.217,1.501,2.434,2.137,3.29c0.323,0.422,0.601,0.771,0.842,0.965c0.232,0.206,0.413,0.252,0.413,0.252
							s-0.191,0-0.47-0.172c-0.273-0.168-0.635-0.459-1.001-0.864c-0.745-0.8-1.594-1.979-2.347-3.209
							c-0.758-1.228-1.422-2.508-1.891-3.481C122.662,33.799,122.401,33.125,122.401,33.125z"/>
						<path style="fill:#FFB906;" d="M122.683,32.75c0,0,0.51,0.531,1.275,1.328c0.758,0.8,1.769,1.862,2.795,2.901
							c0.51,0.524,1.041,1.023,1.538,1.49c0.509,0.453,0.985,0.875,1.431,1.187c0.229,0.139,0.427,0.3,0.619,0.403
							c0.195,0.095,0.366,0.192,0.513,0.25c0.309,0.082,0.485,0.128,0.485,0.128s-0.187-0.013-0.512-0.035
							c-0.314-0.082-0.77-0.224-1.257-0.509c-0.483-0.285-1.026-0.65-1.566-1.091c-0.536-0.445-1.082-0.949-1.605-1.471
							c-1.045-1.049-1.983-2.192-2.654-3.072C123.074,33.378,122.683,32.75,122.683,32.75z"/>
					</g>
				</g>
			</g>
		</g>
		<g>
			<path style="fill:#1D1D1E;" d="M36.433,54.942c-1.982-3.412-3.175-7.096-3.869-10.981c-0.428-2.391-0.942-5.994,0.297-8.188
				c0.154-0.275-0.26-0.3-0.385-0.103c-1.316,2.069-0.996,5.219-0.694,7.632c0.532,4.251,1.856,8.358,4.089,12.006
				C36.054,55.607,36.585,55.204,36.433,54.942z"/>
			<path style="fill:#1D1D1E;" d="M39.02,63.015c-4.81-4.29-9.697-11.278-9.784-17.974c-0.003-0.271-0.417-0.037-0.42,0.168
				c-0.116,6.679,4.706,14.16,9.716,18.276C38.778,63.687,39.257,63.226,39.02,63.015z"/>
			<path style="fill:#1D1D1E;" d="M138.149,46.328c-0.071-0.26-0.5,0.062-0.445,0.29c1.192,4.967,2.372,10.9-0.828,15.349
				c-0.199,0.276,0.128,0.451,0.341,0.239C141.184,58.277,139.437,51.02,138.149,46.328z"/>
			<path style="fill:#1D1D1E;" d="M142.06,49.674c-0.084-0.257-0.503,0.062-0.439,0.286c1.363,4.8-0.038,8.662-2.087,12.995
				c-0.156,0.331,0.308,0.355,0.448,0.119C142.483,58.861,143.607,54.425,142.06,49.674z"/>
		</g>
	</g>
	<g>
		<path style="fill:#FF7606;" d="M70.291,313.228c0,0,12.012-1.771,18.511-2.56c-5.12-26.782-10.635-34.265-14.375-33.083
			C70.685,278.768,68.913,302.791,70.291,313.228z"/>
		<g>
			<path style="fill:#8A5133;" d="M80.099,380.36c7.975-4.495,10.004-6.379,10.584-11.89c0.482-4.587,3.567-8.771,4.006-12.637
				c-0.033-0.043-0.056-0.079-0.091-0.123c-1.739-2.175-4.06-3.625-4.06-3.625s-5.51,5.073-13.05,5.074c0,0,1.595,2.755,0.29,6.96
				c-1.305,4.205-3.771,10.875-5.075,13.63c-1.052,2.222-1.336,2.943-0.803,4.126C73.377,382.558,75.913,382.719,80.099,380.36z"/>
			<path style="fill:#68351E;" d="M94.688,355.834c-0.438,3.866-3.523,8.05-4.006,12.637c-0.58,5.511-2.609,7.395-10.584,11.89
				c-4.186,2.358-6.722,2.197-8.198,1.516c0.128,0.283,0.288,0.585,0.513,0.949c1.16,1.885,2.755,2.466,10.005-0.435
				s9.425-9.715,10.005-13.05c0.58-3.335,2.319-5.22,3.045-7.83C96.179,358.953,96.319,357.921,94.688,355.834z"/>
		</g>
		<g>
			<path style="fill:#8A5133;" d="M152.162,345.994c-0.436-9.425-2.465-8.41-1.595-15.515c0.357-2.922,0.075-5.073-0.379-6.607
				c-0.792-0.418-1.585-0.756-2.231-1.079c-2.319-1.16-6.524-1.596-6.524-1.596l-5.365,10.006c0,0,1.014,1.017,3.189,5.511
				c2.176,4.494,4.061,10.874,3.771,15.659c-0.241,3.975,1.821,6.044,4.604,6.799C150.963,357.404,152.538,354.135,152.162,345.994z
				"/>
			<path style="fill:#68351E;" d="M154.482,343.963c-0.58-6.09-1.451-9.136-0.726-13.92c0.523-3.45-1.518-5.088-3.568-6.17
				c0.454,1.533,0.736,3.685,0.379,6.607c-0.87,7.105,1.159,6.09,1.595,15.515c0.376,8.141-1.199,11.41-4.531,13.179
				c0.567,0.154,1.162,0.258,1.776,0.307C153.032,359.77,155.062,350.053,154.482,343.963z"/>
		</g>
		<path style="fill:#1D1D1E;" d="M53.026,317.875c0,0,3,23,23.75,41.25c10-1,11.75-2.75,15-6.75c-12-20-27.5-42-15.75-72.5
			c5.75-21.5-4.5-16.25-11.5-0.75S53.026,317.875,53.026,317.875z"/>
		<g>
			<path style="fill:#1D1D1E;" d="M91.776,352.375c-12-20-27.5-42-15.75-72.5c5.75-21.5-4.5-16.25-11.5-0.75s-11.5,38.75-11.5,38.75
				s1.398,10.676,8.846,23.25h0.154c0,0-5.75-14.75-0.25-17.75c4.949-2.699,16.579,19.699,26.51,32.593
				C89.573,355.027,90.573,353.856,91.776,352.375z"/>
		</g>
		<path style="fill:#1D1D1E;" d="M98.526,319.625c0,0,12,11.25,37.25,13.5c6.5-4.25,6.75-13,6.75-13s-15.25-6-23.5-11.5
			C109.276,315.125,98.526,319.625,98.526,319.625z"/>
		<g style="opacity:0.5;">
			<path style="fill:#1D1D1E;" d="M113.026,318.375c4.299-2.064,19.359,3.56,28.345,7.273c1.073-2.995,1.155-5.523,1.155-5.523
				s-15.25-6-23.5-11.5c-9.75,6.5-20.5,11-20.5,11s3.361,3.148,10.263,6.447C108.814,323.365,109.611,320.014,113.026,318.375z"/>
		</g>
		<g>
			<path style="fill:#A40712;" d="M91.443,184.792c-3.331-0.172-7.124-0.328-10.667-0.459c-1.685,3.22-4.765,9.325-4.765,9.325
				l-4.11-9.623c-2.258-0.068-3.69-0.107-3.69-0.107s-3.871,1.22-9.412,0.939c1.498,4.501,7.22,20.067,16.477,26.132
				c9.551-6.996,19.686-19.612,22.356-26.899C95.654,184.493,93.598,184.741,91.443,184.792z"/>
			<path style="fill:#E1F5FF;" d="M80.776,184.333c-3.403-0.125-6.57-0.227-8.875-0.297l4.11,9.623
				C76.012,193.658,79.092,187.553,80.776,184.333z"/>
			<g>
				<path style="opacity:0.5;fill:#A40712;" d="M91.443,184.792c-3.331-0.172-7.124-0.328-10.667-0.459
					c-1.685,3.22-4.765,9.325-4.765,9.325l-4.11-9.623c-2.258-0.068-3.69-0.107-3.69-0.107s-1.779,0.559-4.647,0.832
					c1.167,0.478,2.604,0.99,4.265,1.431c4.642,1.231,8.336,11.461,8.336,11.461s3.41-8.714,7.957-9.283
					c4.546-0.568,6.725,8.242-8.81,19.608c-6.922-6.489-12.099-16.051-15.326-23.074c-0.388-0.006-0.78-0.016-1.187-0.037
					c1.498,4.501,7.22,20.067,16.477,26.132c9.551-6.996,19.686-19.612,22.356-26.899C95.654,184.493,93.598,184.741,91.443,184.792
					z"/>
			</g>
		</g>
		<path style="fill:#FFB906;" d="M97.633,184.101c-2.67,7.287-12.806,19.903-22.356,26.899
			c-9.257-6.064-14.979-21.631-16.477-26.132c-0.932-0.047-1.904-0.131-2.919-0.276c1.642,5.054,8.313,23.783,19.646,32.533
			c12.794-8.91,21.499-21.473,24.91-33.683C99.524,183.701,98.585,183.913,97.633,184.101z"/>
		<path style="fill:#CC4509;" d="M54.776,213.958c0,0,0.018-0.698,0.187-1.731c0.101-0.511,0.198-1.115,0.365-1.747
			c0.169-0.631,0.349-1.306,0.587-1.961c0.23-0.658,0.468-1.313,0.75-1.904c0.266-0.598,0.521-1.15,0.783-1.604
			c0.51-0.913,0.884-1.498,0.884-1.498s-0.231,0.661-0.628,1.616c-0.221,0.469-0.396,1.05-0.631,1.65
			c-0.24,0.6-0.468,1.249-0.686,1.901c-0.246,0.643-0.43,1.306-0.637,1.918c-0.195,0.615-0.372,1.192-0.515,1.689
			C54.952,213.283,54.776,213.958,54.776,213.958z"/>
		<g>
			<path style="fill:#A40712;" d="M65.026,241.125c0.795-9.698,1.387-24.342,1.713-33.725c-6.035-8.873-9.701-19.243-10.858-22.809
				c-5.734-0.818-12.646-3.403-18.877-10.104c-8.917-9.704-10.36-21.505-9.442-34.487C18.981,155.717,3.958,153.9,3.958,153.9
				c1.312,15.605,17.984,54.724,50.818,60.058c-4,12.334-5,31.667-7,44.417c-2.25,9.25-15.75,35.5-18.25,53.25
				c0,0,4.519,4.484,11.781,7.804c2.25-5.334,7.857-18.59,13.469-31.554C62.026,271.125,63.776,256.375,65.026,241.125z"/>
			<path style="fill:#FFB906;" d="M75.526,217.125c-3.338-2.577-6.268-6.021-8.787-9.725c-0.326,9.383-0.918,24.026-1.713,33.725
				c-1.25,15.25-3,30-10.25,46.75c-5.611,12.964-11.219,26.22-13.469,31.554c2.533,1.158,5.396,2.178,8.525,2.811
				c8.112,2.143,9.184-1.378,9.949-8.113c0.766-6.735,5.494-21.17,14.66-43.336c0.285-6.241,0.887-37.295,1.193-53.746
				C75.599,217.071,75.563,217.099,75.526,217.125z"/>
			<path style="fill:#FFB906;" d="M85.595,208.532c-2.966,3.073-6.289,5.946-9.959,8.513c-0.307,16.451-0.908,47.505-1.193,53.746
				c0,18.334,7.167,34,13.334,46c4.447,8.26,10.258,6.528,16.275,3.607c-10.892-16.187-16.813-39.342-17.525-64.772
				C85.992,236.566,85.712,217.771,85.595,208.532z"/>
			<path style="fill:#A40712;" d="M156.276,158.125c0,0-0.008-0.254-0.078-0.714c-12.699-6.088-17.013-17.768-18.211-22.092
				c-0.093,0.39-9.674,40.213-37.551,48.124c-2.421,8.665-7.519,17.501-14.842,25.09c0.117,9.238,0.397,28.034,0.932,47.093
				c0.713,25.431,6.634,48.586,17.525,64.772c0.297-0.145,0.594-0.29,0.892-0.439c6.333-3.167,18.333-10.167,24.833-16.167
				c4.334-3.166,5.5-3.416,1.25-10.416c-4.25-7-16.5-26.75-19.25-51s-3-32.5-3-32.5S141.276,196.625,156.276,158.125z"/>
		</g>
		<path style="fill:#F4D9BF;" d="M112.156,139.201c-0.681-1.589-11.008-4.994-11.008-4.994l1.929,5.334
			c0,0-13.051-3.858-16.002-7.15c-0.567,2.837-0.34,7.15-0.34,7.15s-4.54-2.043-6.469-5.107c-4.426,4.767-12.598,4.88-12.598,4.88
			s2.043-1.021,3.518-4.653c-9.191,8.398-18.271,5.788-18.271,5.788s-1.703,2.497-0.908,8.965c0.795,6.469-0.454,11.349-2.21,14.282
			c-5.044,10.087,8.79,21.76,28.966,23.489c21.703,0.571,35.9-14.278,35.877-26.466c-0.465-1.803-1.805-3.742-2.03-8.808
			C112.382,146.805,112.837,140.79,112.156,139.201z"/>
		<path style="fill:#EFCAA6;" d="M49.797,163.697c1.298-2.167,2.313-5.406,2.437-9.557c-0.613-0.628-1.393-1.015-2.182-1.249
			C41.879,153.208,43.753,163.552,49.797,163.697z"/>
		<g>
			<path style="fill:#EFCAA6;" d="M112.579,151.08c0.009,0.279,0.018,0.557,0.03,0.831c0.226,5.066,1.565,7.004,2.03,8.808
				c0-0.112,0.008-0.225,0.005-0.337c4.179-1.153,6.629-7.782,0.576-10.952C113.779,149.615,113.001,150.314,112.579,151.08z"/>
			<path style="fill:#1D1D1E;" d="M123.867,139.343c-1.152-3.17-4.756-5.621-4.756-5.621s1.153-0.288,3.603,0.288
				c-8.935-17.004-26.371-13.114-26.371-13.114s1.152-2.162,3.026-4.611c-3.17-0.432-7.493,2.738-7.493,2.738l-2.45-5.908
				c0,0-1.153,1.585-0.864,4.467c-28.1-12.105-49.428,21.904-49.428,21.904l5.043-0.865c0,0-3.603,1.73-5.188,6.629
				c5.908,0,11.096,7.638,11.096,7.638c-0.012,0.001-0.022,0.002-0.033,0.002c0.789,0.234,1.568,0.621,2.182,1.249
				c0.043-1.465-0.02-3.038-0.227-4.725c-0.795-6.469,0.908-8.965,0.908-8.965s9.08,2.61,18.271-5.788
				c-1.475,3.632-3.518,4.653-3.518,4.653s8.172-0.114,12.598-4.88c1.929,3.064,6.469,5.107,6.469,5.107s-0.228-4.313,0.34-7.15
				c2.951,3.292,16.002,7.15,16.002,7.15l-1.929-5.334c0,0,10.327,3.405,11.008,4.994c0.644,1.503,0.272,6.969,0.423,11.879
				c0.422-0.767,1.2-1.465,2.642-1.65C115.653,146.259,118.968,140.64,123.867,139.343z"/>
		</g>
		<path style="fill:#1D1D1E;" d="M59.974,150.65c0,0,0.119-0.948,0.805-2.214c0.342-0.628,0.838-1.335,1.559-1.935
			c0.358-0.299,0.777-0.565,1.239-0.767c0.237-0.084,0.48-0.166,0.728-0.233c0.271-0.038,0.467-0.099,0.803-0.112
			c0.244,0.019,0.432-0.015,0.723,0.05c0.278,0.06,0.571,0.111,0.797,0.233l0.357,0.162l0.313,0.219
			c0.217,0.137,0.382,0.316,0.556,0.481c0.339,0.338,0.585,0.718,0.798,1.079c0.207,0.366,0.362,0.726,0.486,1.063
			c0.482,1.355,0.477,2.307,0.477,2.307s-0.331-0.888-0.998-2.065c-0.341-0.579-0.781-1.233-1.371-1.748
			c-0.295-0.252-0.623-0.481-0.984-0.605c-0.18-0.095-0.349-0.101-0.518-0.147c-0.156-0.052-0.44-0.016-0.655-0.03
			c-0.124,0.001-0.382,0.051-0.567,0.071c-0.197,0.051-0.392,0.111-0.584,0.171c-0.373,0.162-0.742,0.331-1.064,0.569
			c-0.656,0.459-1.189,1.031-1.615,1.553C60.416,149.812,59.974,150.65,59.974,150.65z"/>
		<path style="fill:#1D1D1E;" d="M88.335,149.764c0,0,0.019-0.239,0.122-0.645c0.112-0.401,0.271-0.987,0.613-1.636
			c0.335-0.647,0.84-1.381,1.609-1.97c0.39-0.282,0.833-0.542,1.332-0.69c0.506-0.145,1.005-0.224,1.566-0.19
			c0.414,0.02,1.07,0.158,1.508,0.395c0.483,0.205,0.871,0.542,1.217,0.868c0.684,0.673,1.108,1.441,1.393,2.109
			c0.556,1.352,0.61,2.315,0.61,2.315s-0.103-0.213-0.281-0.587c-0.174-0.371-0.467-0.881-0.836-1.459
			c-0.378-0.572-0.858-1.209-1.479-1.729c-0.31-0.257-0.654-0.486-1.026-0.64c-0.187-0.098-0.369-0.146-0.548-0.187
			c-0.156-0.065-0.414-0.069-0.646-0.089c-0.374-0.034-0.82,0.017-1.204,0.12c-0.198,0.047-0.38,0.141-0.573,0.2
			c-0.18,0.092-0.359,0.183-0.53,0.286c-0.674,0.434-1.211,1.016-1.628,1.555c-0.41,0.544-0.728,1.039-0.917,1.401
			C88.439,149.549,88.335,149.764,88.335,149.764z"/>
		<path style="fill:#C39368;" d="M62.222,159.044c0,0,1.675-4.117,4.467,0.559C66.13,156.601,63.269,154.437,62.222,159.044z"/>
		<path style="fill:#C39368;" d="M89.718,158.137c0,0,1.813-4.188,5.373-0.349C93.695,154.019,90.626,154.648,89.718,158.137z"/>
		<path style="fill:#C39368;" d="M77.548,168.679c0,0-0.524-0.055-1.244-0.395c-0.351-0.181-0.771-0.418-1.105-0.834
			c-0.166-0.204-0.312-0.456-0.379-0.741c-0.072-0.296-0.066-0.56,0.004-0.899c0.05-0.124,0.072-0.234,0.146-0.37
			c0.088-0.137,0.17-0.289,0.29-0.379c0.212-0.226,0.501-0.316,0.755-0.392c0.526-0.115,1-0.029,1.386,0.044
			c0.774,0.179,1.225,0.452,1.225,0.452s-0.511-0.121-1.265-0.174c-0.373-0.029-0.818-0.018-1.233,0.103
			c-0.197,0.074-0.398,0.161-0.532,0.314c-0.088,0.064-0.114,0.151-0.173,0.223c-0.053,0.086-0.086,0.233-0.129,0.347
			c-0.029,0.165-0.059,0.423-0.004,0.621c0.047,0.207,0.131,0.411,0.26,0.587c0.248,0.358,0.582,0.648,0.895,0.855
			C77.067,168.467,77.548,168.679,77.548,168.679z"/>
		<g>
			<path style="fill:#FFFFFF;" d="M79.769,176.178c9.143-0.467,10.555-2.805,10.415-5.158c-8.777,2.332-16.213,2.071-20.742,1.491
				C70.129,173.948,72.39,176.555,79.769,176.178z"/>
			<path style="fill:#96172D;" d="M92.758,170.275c-0.87,0.275-1.727,0.52-2.573,0.745c0.14,2.354-1.272,4.691-10.415,5.158
				c-7.38,0.377-9.641-2.229-10.327-3.667c-3-0.385-4.729-0.908-4.729-0.908c-0.223,3.283,1.826,8.536,7.18,10.954
				c1.977-0.906,8.013-3.144,14.193-0.348C91.12,179.783,93.634,175.015,92.758,170.275z"/>
			<path style="fill:#E34548;" d="M71.894,182.557c1.746,0.788,3.84,1.279,6.326,1.297c3.052,0.023,5.691-0.596,7.867-1.645
				C79.906,179.413,73.87,181.651,71.894,182.557z"/>
		</g>
		<path style="fill:#530712;" d="M156.198,157.411c-0.403-2.644-2.895-12.284-18.209-22.102c0,0-0.002,0.008-0.002,0.01
			C139.185,139.643,143.499,151.322,156.198,157.411z"/>
		<path style="fill:#530712;" d="M27.561,140.001C16.679,139.083,5.139,151.015,3.958,153.9
			C3.958,153.9,18.981,155.717,27.561,140.001z"/>
		<path style="fill:#F4D9BF;" d="M18.085,150.438l-1.572-5.501c0,0-5.572,1.286-3.215-8.501c-7.215-4.572-8.287-7.644-7.501-8.144
			c0.786-0.5,9.216,5.787,9.216,5.787s-6.073-10.001-4.215-11.359c1.857-1.357,7.645,10.073,7.645,10.073s-3.357-12.003-1.43-13.431
			c1.93-1.429,4.93,12.359,4.93,12.359s0.715-13.074,3-13.002c2.287,0.071,1.001,13.931,1.001,13.931s3.001-5.145,6.501-4.644
			c1.644,0.357,0.43,2.072-0.928,3.358c-1.357,1.286-3.572,3.715-3.93,5.572c-0.357,1.857-1.715,3.215-4.215,3.93
			c0.571,2.929,0.928,4.001,0.928,4.001S23.443,146.722,18.085,150.438z"/>
		<path style="fill:#E3BB94;" d="M17.384,147.985l0.701,2.452c5.358-3.716,6.215-5.572,6.215-5.572s-0.144-0.439-0.396-1.505
			C21.776,144.969,19.662,146.599,17.384,147.985z"/>
		<path style="fill:#C39368;" d="M18.227,137.579c0,0,0.035-0.624,0.484-1.445c0.238-0.394,0.543-0.854,0.973-1.251
			c0.211-0.202,0.448-0.391,0.695-0.571c0.264-0.154,0.512-0.349,0.797-0.472c0.556-0.278,1.142-0.487,1.703-0.615
			c0.559-0.145,1.094-0.187,1.548-0.229c0.453-0.056,0.837,0,1.101-0.009c0.264,0.012,0.415,0.02,0.415,0.02
			s-0.149,0.028-0.409,0.078c-0.26,0.049-0.633,0.091-1.068,0.19c-0.439,0.084-0.943,0.207-1.47,0.375
			c-0.271,0.061-0.527,0.186-0.799,0.28c-0.275,0.088-0.531,0.229-0.794,0.355c-1.051,0.505-1.932,1.293-2.456,2
			c-0.253,0.359-0.448,0.676-0.558,0.913C18.278,137.435,18.227,137.579,18.227,137.579z"/>
		<path style="fill:#F4D9BF;" d="M139.063,138.501l1.297-5.429c0,0-2.916-1.458-2.512-5.104c0.404-3.646-1.377-6.482-2.512-7.859
			c-1.135-1.377,0.648-2.431,2.674-1.134c2.025,1.296,2.593,4.213,2.674,6.644c0.162-8.265,3.401-16.448,5.671-16.529
			c2.27-0.081,0.001,4.132-1.215,7.535c-1.216,3.403-0.811,6.563-0.73,6.32c0.081-0.243,1.944-6.563,5.348-9.723
			c3.403-3.16,4.375-2.512,4.78-1.621c0.405,0.891-5.428,7.616-5.995,12.154c4.537-5.429,8.265-9.48,10.371-8.589
			c2.106,0.892-1.621,3.485-3.079,5.105c-1.458,1.62-2.836,5.186-2.836,5.186s4.231-5.05,8.508-4.295
			c1.377,0.243,1.054,2.432-2.431,4.214c-3.484,1.782-5.349,3.97-5.349,3.97s1.459,4.78-1.053,8.426
			c-2.512,3.647-5.591,2.188-5.591,2.188l-2.755,8.021C144.33,147.98,140.602,143.038,139.063,138.501z"/>
		<path style="fill:#E3BB94;" d="M139.606,136.228l-0.543,2.273c1.539,4.538,5.267,9.479,5.267,9.479l1.589-4.625
			C143.736,141.059,141.67,138.648,139.606,136.228z"/>
		<path style="fill:#C39368;" d="M140.685,125.618c0,0,0.701-0.071,1.746,0.09c0.516,0.098,1.128,0.21,1.749,0.454
			c0.316,0.103,0.622,0.266,0.941,0.411c0.298,0.187,0.622,0.343,0.903,0.566c0.284,0.219,0.571,0.435,0.809,0.699
			c0.264,0.238,0.475,0.516,0.665,0.794c0.216,0.26,0.353,0.557,0.486,0.833c0.149,0.268,0.249,0.539,0.32,0.796
			c0.078,0.254,0.166,0.481,0.193,0.695c0.029,0.212,0.054,0.397,0.074,0.55c0.034,0.303,0.054,0.476,0.054,0.476
			s-0.054-0.166-0.149-0.456c-0.044-0.144-0.098-0.319-0.158-0.519c-0.061-0.2-0.184-0.406-0.276-0.643
			c-0.092-0.238-0.212-0.486-0.379-0.725c-0.152-0.247-0.309-0.508-0.519-0.744c-0.188-0.252-0.404-0.492-0.65-0.712
			c-0.224-0.243-0.497-0.438-0.765-0.64c-0.258-0.213-0.562-0.364-0.839-0.546c-0.302-0.137-0.578-0.317-0.877-0.428
			c-0.579-0.261-1.148-0.448-1.643-0.587C141.379,125.708,140.685,125.618,140.685,125.618z"/>
		<path style="fill:#F9CBC0;" d="M107.432,160.919c0.291,1.374-2.146,3.054-5.443,3.752c-3.302,0.699-6.213,0.153-6.506-1.218
			c-0.286-1.372,2.149-3.05,5.449-3.747C104.231,159.004,107.141,159.55,107.432,160.919z"/>
		<path style="fill:#F9CBC0;" d="M63.001,166.771c-0.372,1.174-2.963,1.401-5.786,0.504c-2.823-0.9-4.809-2.58-4.438-3.754
			c0.374-1.173,2.962-1.397,5.784-0.498C61.388,163.919,63.373,165.6,63.001,166.771z"/>
		<path style="fill:#2E2E30;" d="M74.442,270.791c0,0-0.022-0.841-0.061-2.311c-0.018-1.47-0.083-3.571-0.09-6.092
			c-0.002-2.52-0.049-5.461-0.02-8.611c0.012-3.149,0.097-6.511,0.158-9.871c0.111-3.359,0.222-6.719,0.325-9.868
			c0.1-3.15,0.271-6.087,0.378-8.605c0.111-2.518,0.266-4.613,0.345-6.081c0.101-1.468,0.157-2.306,0.157-2.306
			s0.014,0.841,0.037,2.313c0.002,1.471,0.046,3.573,0.023,6.094c-0.025,2.521-0.008,5.461-0.073,8.609
			c-0.062,3.148-0.128,6.506-0.193,9.864c-0.106,3.357-0.237,6.714-0.291,9.864c-0.067,3.149-0.206,6.087-0.286,8.607
			c-0.084,2.518-0.214,4.617-0.277,6.086C74.491,269.951,74.442,270.791,74.442,270.791z"/>
		<g>
			<path style="fill:#C39368;" d="M46.399,157.985c0,0,0.059-0.125,0.164-0.345c0.025-0.053,0.047-0.119,0.086-0.178
				c0.042-0.054,0.088-0.109,0.139-0.17c0.076-0.13,0.22-0.225,0.364-0.332c0.06-0.067,0.167-0.072,0.25-0.114l0.132-0.053
				l0.148-0.016c0.196-0.042,0.416-0.005,0.634,0.025c0.106,0.03,0.219,0.062,0.329,0.093c0.107,0.051,0.215,0.102,0.324,0.148
				c0.207,0.119,0.417,0.246,0.586,0.419c0.099,0.073,0.176,0.164,0.25,0.257c0.078,0.09,0.158,0.181,0.205,0.287
				c0.131,0.198,0.197,0.413,0.268,0.624c0.012,0.218,0.069,0.434,0.021,0.64c-0.008,0.212-0.076,0.404-0.139,0.587
				c-0.049,0.18-0.137,0.35-0.211,0.494c-0.076,0.137-0.152,0.256-0.223,0.348c-0.068,0.1-0.14,0.158-0.182,0.209
				c-0.045,0.048-0.068,0.074-0.068,0.074s0.031-0.016,0.09-0.044c0.053-0.035,0.154-0.061,0.249-0.143
				c0.103-0.072,0.222-0.166,0.341-0.302c0.117-0.127,0.244-0.269,0.346-0.471c0.111-0.189,0.236-0.4,0.281-0.662
				c0.09-0.25,0.074-0.533,0.068-0.826c-0.063-0.282-0.123-0.586-0.289-0.845c-0.062-0.142-0.156-0.26-0.254-0.379
				c-0.092-0.122-0.19-0.241-0.31-0.336c-0.223-0.21-0.485-0.364-0.749-0.504c-0.139-0.058-0.279-0.11-0.415-0.159
				c-0.146-0.027-0.29-0.055-0.43-0.083c-0.287-0.026-0.573-0.021-0.832,0.067l-0.19,0.055l-0.169,0.098
				c-0.104,0.072-0.224,0.113-0.295,0.211c-0.077,0.087-0.149,0.169-0.22,0.248c-0.066,0.078-0.093,0.183-0.135,0.262
				c-0.083,0.169-0.125,0.311-0.127,0.432C46.413,157.847,46.399,157.985,46.399,157.985z"/>
			<path style="fill:#C39368;" d="M47.859,159.555c0,0,0.22,0.172,0.623,0.239c0.2,0.037,0.446,0.041,0.713-0.02
				c0.126-0.046,0.271-0.071,0.396-0.16c0.133-0.069,0.248-0.169,0.357-0.278c0.105-0.111,0.182-0.247,0.258-0.371
				c0.055-0.134,0.109-0.271,0.131-0.4c0.055-0.262,0.045-0.502,0.012-0.7c-0.021-0.201-0.097-0.356-0.133-0.464
				c-0.043-0.107-0.074-0.166-0.074-0.166s-0.025,0.065-0.059,0.174c-0.037,0.109-0.059,0.264-0.113,0.436
				c-0.029,0.086-0.057,0.176-0.078,0.271c-0.035,0.093-0.082,0.183-0.109,0.279c-0.031,0.096-0.104,0.17-0.138,0.264
				c-0.058,0.078-0.108,0.161-0.177,0.224c-0.12,0.148-0.293,0.243-0.461,0.339c-0.18,0.082-0.367,0.145-0.537,0.194
				C48.127,159.505,47.859,159.555,47.859,159.555z"/>
		</g>
		<g>
			<path style="fill:#C39368;" d="M118.481,153.858c0,0-0.101-0.095-0.277-0.262c-0.043-0.04-0.087-0.094-0.145-0.135
				c-0.06-0.034-0.123-0.069-0.191-0.108c-0.119-0.093-0.287-0.129-0.461-0.176c-0.08-0.041-0.182-0.007-0.273-0.015l-0.142-0.002
				l-0.144,0.039c-0.199,0.033-0.39,0.146-0.583,0.254c-0.088,0.066-0.181,0.137-0.272,0.206c-0.08,0.086-0.162,0.173-0.247,0.256
				c-0.149,0.186-0.301,0.381-0.394,0.604c-0.066,0.104-0.104,0.216-0.14,0.331c-0.041,0.112-0.082,0.226-0.088,0.342
				c-0.049,0.232-0.033,0.455-0.022,0.679c0.068,0.208,0.092,0.429,0.212,0.604c0.083,0.195,0.218,0.349,0.343,0.497
				c0.109,0.15,0.254,0.277,0.375,0.383c0.121,0.1,0.235,0.183,0.334,0.244c0.1,0.069,0.187,0.097,0.245,0.129
				c0.059,0.029,0.09,0.045,0.09,0.045s-0.035-0.004-0.099-0.009c-0.062-0.014-0.166-0.001-0.285-0.043
				c-0.121-0.03-0.266-0.075-0.427-0.158c-0.155-0.077-0.324-0.162-0.492-0.314c-0.173-0.136-0.367-0.287-0.503-0.514
				c-0.175-0.2-0.264-0.47-0.363-0.745c-0.044-0.286-0.099-0.591-0.038-0.892c0.007-0.155,0.052-0.3,0.099-0.446
				c0.042-0.147,0.09-0.294,0.167-0.425c0.131-0.277,0.32-0.516,0.516-0.742c0.107-0.105,0.219-0.204,0.328-0.299
				c0.126-0.079,0.25-0.157,0.37-0.233c0.258-0.128,0.527-0.229,0.8-0.24l0.197-0.018l0.192,0.03
				c0.125,0.029,0.251,0.024,0.352,0.09c0.104,0.053,0.201,0.103,0.296,0.151c0.09,0.048,0.151,0.137,0.22,0.196
				c0.139,0.128,0.23,0.244,0.276,0.356C118.419,153.734,118.481,153.858,118.481,153.858z"/>
			<path style="fill:#C39368;" d="M117.69,155.852c0,0-0.142,0.24-0.493,0.449c-0.173,0.106-0.4,0.2-0.672,0.24
				c-0.134,0.003-0.277,0.031-0.426-0.005c-0.148-0.017-0.292-0.068-0.434-0.129c-0.139-0.065-0.26-0.163-0.376-0.251
				c-0.099-0.105-0.199-0.212-0.266-0.326c-0.146-0.225-0.226-0.452-0.266-0.648c-0.055-0.194-0.04-0.367-0.044-0.481
				c0.001-0.116,0.009-0.181,0.009-0.181s0.046,0.052,0.116,0.141c0.074,0.088,0.15,0.225,0.265,0.365
				c0.06,0.07,0.117,0.144,0.172,0.225c0.065,0.074,0.142,0.141,0.203,0.22c0.064,0.078,0.158,0.121,0.224,0.196
				c0.082,0.051,0.16,0.11,0.246,0.145c0.165,0.094,0.36,0.12,0.552,0.148c0.197,0.011,0.394,0.001,0.572-0.014
				C117.423,155.902,117.69,155.852,117.69,155.852z"/>
		</g>
		<g>
			<path style="fill:#A40712;" d="M11.218,153.214c-4.172,1.054-7.26,0.686-7.26,0.686c1.305,15.523,17.818,54.305,50.315,59.96
				c1.015-2.384,2.249-5.519,3.691-9.615C28.068,203.938,14.479,164.444,11.218,153.214z"/>
		</g>
		<g>
			<path style="fill:#A40712;" d="M156.276,158.125c0,0-0.008-0.254-0.078-0.714c-2.694-1.292-4.991-2.843-6.981-4.515
				c-2.509,9.918-11.594,33.606-42.708,47.247c0.841,3.512,1.793,6.701,2.751,9.522
				C113.291,207.872,142.335,193.909,156.276,158.125z"/>
		</g>
		<g>
			<path style="fill:#FFB906;" d="M97.633,184.101c-2.67,7.287-12.806,19.903-22.356,26.899
				c-9.257-6.064-14.979-21.631-16.477-26.132c-0.313-0.016-0.636-0.043-0.957-0.068c1.521,4.648,7.936,22.631,17.396,26.923
				c0,0,9.68-6.757,17.646-17.848c7.966-11.091-1.009,9.58-16.94,20.873c-4.941-2.622-12.201-11.093-16.738-21.579
				c-0.031-0.002-0.059-0.002-0.089-0.005c3.295,7.713,8.8,18.083,16.409,23.959c12.794-8.91,21.499-21.473,24.91-33.683
				C99.524,183.701,98.585,183.913,97.633,184.101z"/>
		</g>
		<g style="opacity:0.5;">
			<path style="fill:#FFA106;" d="M75.526,217.125c-3.338-2.577-6.268-6.021-8.787-9.725c-0.314,9.054-0.877,22.991-1.631,32.672
				h0.123c0,0,2.779-21.919,4.939-22.228c2.161-0.309,1.606,11.53,1.356,34.03c0.25,16.5-2.25,22.25-8.75,37.75
				c-4.748,11.322-10.559,25.435-13.349,32.52c0.137,0.029,0.267,0.067,0.405,0.096c8.112,2.143,9.184-1.378,9.949-8.113
				c0.766-6.735,5.494-21.17,14.66-43.336c0.285-6.241,0.887-37.295,1.193-53.746C75.599,217.071,75.563,217.099,75.526,217.125z"/>
		</g>
		<g style="opacity:0.5;">
			<path style="fill:#FFA106;" d="M81.526,218.625c2.5,0.25,4.25,24,4.25,24l0.428,0.291c-0.329-14.315-0.52-27.224-0.609-34.384
				c-2.966,3.073-6.289,5.946-9.959,8.513c-0.307,16.451-0.908,47.505-1.193,53.746c0,18.334,7.167,34,13.334,46
				c3.097,5.752,6.854,6.656,10.883,5.69c-3.369-4.541-15.656-22.072-18.883-40.356C76.026,260.875,79.026,218.375,81.526,218.625z"
				/>
		</g>
		<g>
			<path style="fill:#1D1D1E;" d="M56.227,133.145c-7.524,2.04-12.801,4.504-15.773,6.115l3.723-0.638c0,0-3.603,1.73-5.188,6.629
				c5.908,0,11.096,7.638,11.096,7.638c-0.012,0.001-0.022,0.002-0.033,0.002c0.789,0.234,1.568,0.621,2.182,1.249
				c0.043-1.465-0.02-3.038-0.227-4.725c-0.795-6.469,0.908-8.965,0.908-8.965s9.061,2.604,18.242-5.762
				c0.945-1.156,1.871-2.404,2.894-3.842C61.747,140.045,50.364,137.285,56.227,133.145z"/>
			<path style="fill:#1D1D1E;" d="M85.727,139.03c0.607,0.33,1.008,0.511,1.008,0.511s-0.228-4.313,0.34-7.15
				c0.096,0.107,0.203,0.215,0.32,0.323c-0.802-1.598-1.174-3.248-1.5-4.974C84.177,132.16,84.788,136.206,85.727,139.03z"/>
			<path style="fill:#1D1D1E;" d="M119.111,133.722c0,0,1.153-0.288,3.603,0.288c-0.326-0.622-0.668-1.207-1.016-1.774
				c-4.941,0.016-10.966-1.851-10.966-1.851l7.589,4.14c0,0-11.153-0.115-20.813-5.289c0.901,1.938,2.35,3.799,3.777,5.354
				l-0.138-0.381c0,0,10.327,3.405,11.008,4.994c0.644,1.503,0.272,6.969,0.423,11.879c0.422-0.767,1.2-1.465,2.642-1.65
				c0.433-3.17,3.747-8.79,8.646-10.087C122.715,136.173,119.111,133.722,119.111,133.722z"/>
		</g>
		<g>
			<path style="opacity:0.5;fill:#A40712;" d="M55.881,184.592c-1.243-0.177-2.544-0.444-3.878-0.812
				c1.969,4.622,5.719,12.827,10.773,21.179c3.334,5.666,0.334,35.666-4.666,57.333c-4.193,18.167-17.986,45.695-22.336,54.119
				c1.592,1.013,3.444,2.063,5.533,3.018c2.25-5.334,7.857-18.59,13.469-31.554c7.25-16.75,9-31.5,10.25-46.75
				c0.795-9.698,1.387-24.342,1.713-33.725C60.704,198.527,57.038,188.158,55.881,184.592z"/>
		</g>
		<g>
			<path style="fill:#A40712;" d="M92.109,207.292c6.579-7.989,12.326-20.111,15.147-26.574c-2.142,1.114-4.411,2.041-6.82,2.725
				c-2.421,8.665-7.519,17.501-14.842,25.09c0.117,9.238,0.397,28.034,0.932,47.093c0.713,25.431,6.634,48.586,17.525,64.772
				c0.297-0.145,0.594-0.29,0.892-0.439c1.678-0.839,3.759-1.952,6.023-3.239c-5.299-8.469-14.12-24.357-16.856-40.094
				C90.11,253.625,88.776,210.958,92.109,207.292z"/>
		</g>
	</g>
</g>
</svg>
