<?xml version="1.0" encoding="utf-8"?>
<!-- Generator: Adobe Illustrator 27.5.0, SVG Export Plug-In . SVG Version: 6.00 Build 0)  -->
<svg version="1.1" id="Layer_1" xmlns="http://www.w3.org/2000/svg" xmlns:xlink="http://www.w3.org/1999/xlink" x="0px" y="0px"
	 viewBox="0 0 215.103 427.403" style="enable-background:new 0 0 215.103 427.403;" xml:space="preserve">
<g>
	<g>
		<g>
			<path style="fill:#AC1917;" d="M204.209,384.08l-75.331,15.434c0,0,3.239-0.325,5.984,2.28c2.455,2.33,3.89,5.473,3.612,8.848
				c-0.479,5.881-2.119,9.912-7.272,10.857l0,0l72.183-17.033C203.385,404.466,213.586,396.847,204.209,384.08z"/>
			<path style="fill:#681103;" d="M131.361,422.108l-0.354-1.212l1.005-0.234c3.522-1.048,5.237-4.059,5.729-10.068
				c0.252-3.068-0.965-6.047-3.426-8.384c-1.982-1.879-4.207-2.084-5.072-2.084c-0.162,0-0.258,0.01-0.277,0.012l-0.258-1.228
				l75.848-15.545l0.283,0.384c9.588,13.063-0.861,21.104-0.968,21.185l-0.124,0.095l-0.165,0.038l-71.13,16.784
				C132.105,421.953,131.741,422.037,131.361,422.108z M132.332,399.451c0.986,0.366,2.063,0.962,3.078,1.927
				c2.732,2.592,4.082,5.893,3.803,9.303c-0.271,3.285-0.896,6.728-3.091,9.008l66.893-15.785c1.126-0.91,8.868-7.795,0.847-19.109
				L132.332,399.451z"/>
		</g>
		<path style="opacity:0.5;fill:#660126;" d="M204.209,384.08l-4.9,1.007c1.281,1.015,2.023,2.412,1.73,4.302
			c-1.245,7.943-14.387,10.283-20.778,11.634c-11.896,2.515-39.804,7.699-41.783,8.143c0.032,0.487,0.041,0.977-0.003,1.477
			c-0.479,5.881-2.119,9.912-7.272,10.857l72.183-17.033C203.385,404.466,213.586,396.847,204.209,384.08z"/>
		<path style="opacity:0.7;fill:#660126;" d="M206.581,388.009c-0.013,1.529-0.34,3.114-0.935,4.565
			c-3.027,7.342-12.021,10.022-19.314,11.817c-12.221,3.006-44.799,10.113-48.747,11.173c-0.986,3.154-2.847,5.285-6.383,5.936
			l72.183-17.033C203.385,404.466,211.5,398.393,206.581,388.009z"/>
		<g>
			<path style="fill:#FFFCF8;" d="M43.667,394.734c0,0,6.401,11.497,0,21.303l86.35,5.749c0,0,7.87-0.506,7.87-10.82
				c0-9.348-6.5-11.452-10.611-11.493C121.786,399.411,43.667,394.734,43.667,394.734z"/>
			<path style="fill:#C7BBAE;" d="M130.017,422.119l-0.028-0.003l-86.96-5.789l0.295-0.447c6.233-9.549,0.05-20.887-0.012-21.006
				l-0.286-0.511l0.669,0.044c0.781,0.046,78.17,4.671,83.587,4.732c8.106,0.087,10.994,6.167,10.994,11.826
				c0,5.454-2.212,8.195-4.073,9.531c-2.035,1.467-4.069,1.613-4.153,1.619L130.017,422.119z M44.295,415.745l85.719,5.707
				c0.578-0.045,7.479-0.831,7.479-10.486c0-10.255-7.824-11.138-10.223-11.164c-5.172-0.056-75.487-4.25-82.99-4.695
				C45.399,397.423,49.523,407.185,44.295,415.745z"/>
		</g>
		<path style="opacity:0.5;fill:#FDEEE0;" d="M127.275,399.473c-0.227-0.004-0.585-0.015-1.043-0.032
			c3.399,1.465,5.465,4.225,3.928,9.49c-1.027,3.512-5.399,4.249-8.586,4.505c-6.547,0.525-13.038,0.972-19.62,0.817
			c-7.31-0.172-14.542-0.92-21.83-1.323c-5.371-0.301-10.885-0.267-16.169-1.379c-4.307-0.907-9.831-2.372-11.946-6.591
			c-1.146-2.279-1.715-4.977-3.202-7.069c-1.108-1.565-2.542-2.395-4.117-3.093c-0.66-0.039-1.024-0.063-1.024-0.063
			s6.401,11.497,0,21.303l86.35,5.749c0,0,7.87-0.506,7.87-10.82C137.887,401.618,131.387,399.514,127.275,399.473z"/>
		<path style="opacity:0.5;fill:#DDD6D1;" d="M133.58,401.349c1.637,1.698,3.171,7.518,1.587,10.99
			c-2.35,5.151-8.243,6.183-13.748,6.123c-7.188-0.075-14.312-0.561-21.506-0.693c-8.135-0.142-16.253-0.205-24.366-0.856
			c-6.03-0.487-12.538-0.574-18.469-1.839c-4.058-0.865-6.84-2.758-8.003-6.756c-1.276-4.372-1.466-9.8-5.06-12.879
			c1.241,2.605,5.128,12.208-0.349,20.599l86.35,5.749c0,0,7.87-0.506,7.87-10.82C137.887,405.909,135.979,402.98,133.58,401.349z"
			/>
	</g>
	<path style="fill:#C7BBAE;" d="M48.446,399.446c0,0,5.031,0.213,12.587,0.534c3.769,0.188,8.172,0.404,12.887,0.638
		c4.714,0.256,9.746,0.527,14.769,0.802c5.029,0.3,10.051,0.605,14.766,0.888c4.708,0.307,9.108,0.591,12.874,0.839
		c7.53,0.543,12.55,0.907,12.55,0.907s-5.032-0.213-12.581-0.535c-3.771-0.183-8.172-0.403-12.889-0.636
		c-4.711-0.256-9.74-0.529-14.769-0.801c-5.029-0.307-10.051-0.607-14.766-0.892c-4.708-0.305-9.102-0.594-12.871-0.839
		C53.469,399.807,48.446,399.446,48.446,399.446z"/>
	<path style="fill:#C7BBAE;" d="M50.764,404.775c0,0,4.425,0.225,11.059,0.558c3.314,0.191,7.179,0.418,11.324,0.66
		c4.142,0.265,8.557,0.543,12.973,0.825c4.415,0.314,8.832,0.625,12.97,0.918c4.136,0.316,7.998,0.609,11.309,0.861
		c6.613,0.561,11.019,0.928,11.019,0.928s-4.425-0.221-11.06-0.555c-3.311-0.192-7.179-0.42-11.321-0.66
		c-4.139-0.267-8.561-0.545-12.979-0.832c-4.41-0.309-8.828-0.62-12.964-0.913c-4.136-0.314-7.995-0.608-11.302-0.861
		C55.177,405.146,50.764,404.775,50.764,404.775z"/>
	<path style="fill:#C7BBAE;" d="M49.184,411.055c0,0,5.303,0.245,13.257,0.611c3.979,0.212,8.616,0.452,13.583,0.715
		c4.969,0.285,10.269,0.588,15.572,0.892c5.293,0.332,10.589,0.667,15.559,0.98c4.96,0.332,9.594,0.648,13.564,0.912
		c7.938,0.593,13.229,0.983,13.229,0.983s-5.303-0.243-13.263-0.609c-3.974-0.209-8.614-0.454-13.583-0.712
		c-4.964-0.287-10.27-0.59-15.566-0.893c-5.296-0.335-10.593-0.668-15.559-0.981c-4.963-0.335-9.597-0.647-13.564-0.914
		C54.474,411.447,49.184,411.055,49.184,411.055z"/>
	<path style="fill:#C7BBAE;" d="M49.184,415.202c0,0,5.088,0.24,12.728,0.607c3.815,0.21,8.265,0.455,13.036,0.714
		c4.767,0.284,9.855,0.588,14.94,0.896c5.084,0.331,10.166,0.662,14.931,0.976c4.764,0.336,9.208,0.648,13.02,0.918
		c7.618,0.588,12.693,0.98,12.693,0.98s-5.088-0.243-12.728-0.609c-3.814-0.208-8.265-0.453-13.035-0.711
		c-4.768-0.287-9.855-0.588-14.94-0.896c-5.085-0.332-10.164-0.662-14.931-0.978c-4.765-0.335-9.211-0.646-13.02-0.918
		C54.259,415.593,49.184,415.202,49.184,415.202z"/>
	<path style="opacity:0.5;fill:#2C6BB2;" d="M134.924,400.856l63.302-12.662C198.226,388.194,180.174,398.473,134.924,400.856z"/>
	<g>
		<g>
			<g>
				<path style="fill:#FFC900;" d="M205.601,366.597l-75.866,13.563c0,0,3.258-0.288,6.02,2.001
					c2.474,2.048,3.915,4.807,3.642,7.769c-0.488,5.17-2.139,8.708-7.326,9.544l0,0l72.699-14.967
					C204.77,384.506,215.042,377.813,205.601,366.597z"/>
				<path style="fill:#C78817;" d="M132.207,400.083l-0.311-1.223l1.012-0.206c3.538-0.912,5.262-3.538,5.75-8.775
					c0.25-2.655-0.965-5.24-3.416-7.273c-2.001-1.655-4.268-1.834-5.145-1.834c-0.174,0-0.273,0.005-0.293,0.008l-0.227-1.232
					l76.344-13.646l0.279,0.334c9.74,11.569-0.877,18.696-0.983,18.767l-0.273,0.113l-71.647,14.747
					C132.955,399.946,132.588,400.021,132.207,400.083z M133.483,380.125c0.902,0.33,1.87,0.827,2.785,1.589
					c2.776,2.295,4.147,5.233,3.858,8.268c-0.264,2.821-0.867,5.774-2.932,7.79l67.238-13.837c1.117-0.788,8.863-6.783,0.846-16.643
					L133.483,380.125z"/>
			</g>
			<path style="opacity:0.5;fill:#F8AF00;" d="M205.601,366.597l-4.939,0.883c1.291,0.896,2.041,2.125,1.746,3.778
				c-1.254,6.979-14.489,9.039-20.928,10.222c-11.983,2.21-40.09,6.766-42.081,7.154c0.028,0.426,0.037,0.858-0.003,1.295
				c-0.488,5.17-2.139,8.708-7.326,9.544l72.699-14.967C204.77,384.506,215.042,377.813,205.601,366.597z"/>
			<path style="opacity:0.7;fill:#F8AF00;" d="M207.987,370.049c-0.013,1.349-0.339,2.737-0.94,4.011
				c-3.046,6.448-12.107,8.805-19.451,10.384c-12.314,2.641-45.119,8.878-49.096,9.811c-0.996,2.773-2.866,4.645-6.43,5.218
				l72.699-14.967C204.77,384.506,212.938,379.169,207.987,370.049z"/>
			<g>
				<path style="fill:#FFFCF8;" d="M43.903,375.96c0,0,6.454,10.102,0,18.712l86.976,5.051c0,0,7.923-0.443,7.923-9.507
					c0-8.211-6.548-10.057-10.689-10.098C122.586,380.067,43.903,375.96,43.903,375.96z"/>
				<path style="fill:#C7BBAE;" d="M130.879,400.036l-0.027-0.006l-87.586-5.082l0.329-0.44c6.254-8.354,0.05-18.304-0.012-18.401
					l-0.314-0.496l0.663,0.035c0.787,0.042,78.733,4.108,84.184,4.16c8.153,0.079,11.054,5.43,11.054,10.409
					c0,9.248-8.188,9.814-8.265,9.814L130.879,400.036z M44.538,394.4l86.335,5.009c0.547-0.037,7.559-0.704,7.559-9.193
					c0-8.985-7.904-9.761-10.325-9.785c-5.206-0.05-76.107-3.738-83.591-4.125C45.677,378.414,49.732,386.916,44.538,394.4z"/>
			</g>
			<path style="opacity:0.5;fill:#FDEEE0;" d="M128.112,380.118c-0.224-0.004-0.588-0.014-1.048-0.024
				c3.422,1.28,5.501,3.708,3.957,8.336c-1.033,3.086-5.439,3.729-8.647,3.956c-6.595,0.459-13.135,0.854-19.763,0.717
				c-7.356-0.149-14.647-0.803-21.982-1.162c-5.412-0.261-10.969-0.232-16.284-1.21c-4.341-0.797-9.905-2.086-12.034-5.787
				c-1.155-2.009-1.728-4.375-3.224-6.213c-1.12-1.376-2.564-2.106-4.145-2.718c-0.669-0.033-1.04-0.053-1.04-0.053
				s6.454,10.102,0,18.712l86.976,5.051c0,0,7.923-0.443,7.923-9.507C138.802,382.005,132.254,380.159,128.112,380.118z"/>
			<path style="opacity:0.5;fill:#DDD6D1;" d="M134.464,381.765c1.649,1.492,3.195,6.604,1.6,9.659
				c-2.365,4.524-8.306,5.428-13.848,5.374c-7.239-0.068-14.414-0.489-21.656-0.602c-8.193-0.128-16.374-0.183-24.543-0.755
				c-6.074-0.43-12.628-0.503-18.602-1.613c-4.086-0.762-6.89-2.426-8.063-5.938c-1.285-3.84-1.475-8.608-5.091-11.313
				c1.248,2.285,5.166,10.724-0.358,18.095l86.976,5.051c0,0,7.923-0.443,7.923-9.507
				C138.802,385.774,136.879,383.204,134.464,381.765z"/>
		</g>
		<path style="fill:#C7BBAE;" d="M48.723,378.986c0,0,5.069,0.183,12.668,0.456c3.799,0.163,8.234,0.354,12.979,0.554
			c4.752,0.224,9.814,0.464,14.874,0.702c5.063,0.268,10.129,0.534,14.875,0.784c4.739,0.272,9.171,0.527,12.967,0.743
			c7.587,0.483,12.648,0.808,12.648,0.808s-5.073-0.185-12.672-0.456c-3.797-0.164-8.231-0.352-12.983-0.555
			c-4.746-0.221-9.809-0.461-14.874-0.7c-5.06-0.267-10.126-0.535-14.869-0.783c-4.745-0.273-9.173-0.529-12.967-0.746
			C53.783,379.308,48.723,378.986,48.723,378.986z"/>
		<path style="fill:#C7BBAE;" d="M51.057,383.668c0,0,4.453,0.192,11.134,0.48c3.336,0.165,7.229,0.362,11.405,0.571
			c4.17,0.229,8.617,0.478,13.067,0.723c4.444,0.275,8.891,0.554,13.061,0.81c4.164,0.276,8.057,0.54,11.386,0.762
			c6.666,0.496,11.106,0.827,11.106,0.827s-4.453-0.189-11.131-0.477c-3.339-0.17-7.232-0.364-11.405-0.572
			c-4.17-0.232-8.62-0.48-13.066-0.726c-4.45-0.276-8.891-0.55-13.063-0.806c-4.164-0.282-8.056-0.541-11.386-0.768
			C55.5,384,51.057,383.668,51.057,383.668z"/>
		<path style="fill:#C7BBAE;" d="M49.458,389.183c0,0,5.343,0.214,13.353,0.525c4.008,0.184,8.676,0.395,13.683,0.625
			c5.001,0.247,10.338,0.514,15.678,0.779c5.334,0.293,10.667,0.585,15.674,0.862c4.998,0.298,9.665,0.572,13.664,0.811
			c7.995,0.522,13.325,0.875,13.325,0.875s-5.343-0.21-13.353-0.527c-4.002-0.179-8.673-0.392-13.683-0.622
			c-5.001-0.247-10.338-0.514-15.675-0.777c-5.334-0.295-10.67-0.587-15.671-0.864c-4.998-0.295-9.668-0.574-13.667-0.809
			C54.788,389.534,49.458,389.183,49.458,389.183z"/>
		<path style="fill:#C7BBAE;" d="M49.458,392.827c0,0,5.131,0.207,12.817,0.523c3.84,0.183,8.328,0.396,13.126,0.622
			c4.804,0.247,9.93,0.515,15.052,0.781c5.116,0.292,10.238,0.585,15.04,0.861c4.798,0.295,9.273,0.571,13.113,0.81
			c7.672,0.527,12.79,0.875,12.79,0.875s-5.128-0.208-12.814-0.525c-3.843-0.178-8.328-0.39-13.132-0.619
			c-4.799-0.251-9.924-0.517-15.046-0.777c-5.119-0.298-10.238-0.593-15.04-0.867c-4.798-0.295-9.276-0.571-13.113-0.812
			C54.579,393.177,49.458,392.827,49.458,392.827z"/>
		<path style="opacity:0.5;fill:#2C6BB2;" d="M135.82,380.228l63.75-11.128C199.57,369.1,181.391,378.134,135.82,380.228z"/>
	</g>
	<g>
		<g>
			<g>
				<path style="fill:#68B32E;" d="M205.43,347.945l-76.275,12.707c0,0,3.243-0.307,6.004,1.969c2.467,2.032,3.927,4.79,3.672,7.75
					c-0.445,5.173-2.058,8.721-7.207,9.579l0,0l73.105-14.095C204.729,365.855,214.893,359.109,205.43,347.945z"/>
				<path style="fill:#007233;" d="M131.762,380.56l-0.305-1.221l0.592-0.115c3.821-0.841,5.573-3.423,6.049-8.895
					c0.225-2.662-0.998-5.238-3.453-7.262c-2.412-1.985-5.307-1.801-5.408-1.795l-0.221-1.231l76.737-12.786l0.275,0.322
					c9.758,11.522-0.734,18.699-0.841,18.772l-0.292,0.115l-72.497,13.977C132.192,380.484,131.984,380.528,131.762,380.56z
					 M133.011,360.646c0.864,0.321,1.786,0.805,2.66,1.529c2.771,2.282,4.157,5.209,3.896,8.241c-0.249,2.896-0.859,5.913-3,7.938
					l67.829-13.073c1.129-0.813,8.734-6.847,0.706-16.647L133.011,360.646z"/>
			</g>
			<path style="opacity:0.5;fill:#528235;" d="M205.43,347.945l-4.709,0.783c0.482,0.366,0.865,0.991,0.582,2.649
				c-1.195,6.985-14.33,9.111-20.715,10.331c-11.893,2.268-39.789,6.971-41.764,7.368c0.033,0.427,0.046,0.859,0.006,1.294
				c-0.445,5.173-2.058,8.721-7.207,9.579l73.105-14.095C204.729,365.855,214.893,359.109,205.43,347.945z"/>
			<path style="opacity:0.7;fill:#528235;" d="M207.826,351.383c0,1.348-0.321,2.741-0.906,4.015
				c-2.984,6.465-12.951,7.624-20.233,9.238c-12.217,2.707-44.767,9.118-48.716,10.07c-0.968,2.774-2.813,4.657-6.348,5.244
				l73.105-14.095C204.729,365.855,212.811,360.478,207.826,351.383z"/>
			<g>
				<path style="fill:#FFFCF8;" d="M43.853,356.893c0,0,6.479,10.066,0.131,18.713l86.454,4.6c0,0,7.869-0.481,7.807-9.542
					c-0.059-8.215-6.581-10.025-10.695-10.041C122.06,360.595,43.853,356.893,43.853,356.893z"/>
				<path style="fill:#C7BBAE;" d="M130.439,380.522l-0.021-0.005l-87.066-4.631l0.32-0.443c6.162-8.396-0.078-18.3-0.143-18.4
					l-0.318-0.487l0.66,0.026c0.784,0.04,78.259,3.7,83.683,3.727c8.098,0.037,11.02,5.372,11.057,10.355
					c0.066,9.242-8.063,9.849-8.146,9.853L130.439,380.522z M44.612,375.328l85.821,4.567c0.541-0.039,7.5-0.742,7.441-9.229
					c-0.063-8.992-7.92-9.726-10.326-9.738c-5.178-0.019-75.648-3.343-83.089-3.693C45.63,359.337,49.719,367.821,44.612,375.328z"
					/>
			</g>
			<path style="opacity:0.5;fill:#FDEEE0;" d="M127.549,360.623c-0.224-0.002-0.585-0.013-1.039-0.023
				c3.404,1.265,5.489,3.68,3.986,8.314c-1.002,3.089-5.374,3.761-8.56,4.001c-6.551,0.493-13.045,0.923-19.629,0.822
				c-7.316-0.118-14.561-0.733-21.858-1.051c-5.377-0.234-10.895-0.177-16.188-1.126c-4.313-0.775-9.855-2.035-11.993-5.726
				c-1.161-2.002-1.752-4.368-3.249-6.198c-1.126-1.368-2.561-2.093-4.139-2.694c-0.663-0.031-1.027-0.049-1.027-0.049
				s6.479,10.066,0.131,18.713l86.454,4.6c0,0,7.869-0.481,7.807-9.542C138.186,362.449,131.663,360.639,127.549,360.623z"/>
			<path style="opacity:0.5;fill:#DDD6D1;" d="M133.875,362.233c1.646,1.482,3.219,6.59,1.656,9.648
				c-2.316,4.537-8.215,5.475-13.723,5.448c-7.192-0.028-14.321-0.417-21.525-0.489c-8.134-0.087-16.263-0.101-24.384-0.634
				c-6.041-0.396-12.553-0.433-18.497-1.515c-4.067-0.744-6.865-2.392-8.054-5.897c-1.3-3.832-1.527-8.602-5.14-11.285
				c1.254,2.28,5.209,10.697-0.224,18.097l86.454,4.6c0,0,7.869-0.481,7.807-9.542C138.207,366.22,136.281,363.657,133.875,362.233z
				"/>
		</g>
		<path style="fill:#C7BBAE;" d="M48.661,359.896c0,0,5.035,0.158,12.591,0.392c3.777,0.143,8.181,0.309,12.904,0.488
			c4.718,0.197,9.75,0.408,14.782,0.624c5.032,0.239,10.063,0.481,14.781,0.707c4.717,0.247,9.117,0.479,12.889,0.675
			c7.544,0.445,12.572,0.74,12.572,0.74s-5.038-0.155-12.59-0.391c-3.778-0.142-8.185-0.308-12.905-0.486
			c-4.718-0.201-9.75-0.412-14.785-0.623c-5.035-0.242-10.063-0.484-14.781-0.71c-4.717-0.247-9.114-0.477-12.889-0.677
			C53.69,360.19,48.661,359.896,48.661,359.896z"/>
		<path style="fill:#C7BBAE;" d="M51.01,364.563c0,0,4.428,0.172,11.069,0.422c3.314,0.15,7.186,0.327,11.333,0.515
			c4.145,0.214,8.567,0.435,12.985,0.661c4.422,0.248,8.844,0.501,12.986,0.735c4.142,0.259,8.007,0.499,11.324,0.704
			c6.622,0.464,11.038,0.772,11.038,0.772s-4.429-0.169-11.069-0.422c-3.314-0.149-7.182-0.324-11.333-0.514
			c-4.145-0.212-8.564-0.435-12.985-0.659c-4.425-0.25-8.844-0.502-12.983-0.74c-4.148-0.256-8.01-0.499-11.324-0.704
			C55.426,364.872,51.01,364.563,51.01,364.563z"/>
		<path style="fill:#C7BBAE;" d="M49.464,370.09c0,0,5.309,0.184,13.272,0.455c3.98,0.166,8.622,0.349,13.598,0.557
			c4.973,0.221,10.276,0.456,15.578,0.699c5.306,0.261,10.608,0.528,15.578,0.782c4.973,0.268,9.609,0.52,13.586,0.736
			c7.951,0.484,13.25,0.809,13.25,0.809s-5.311-0.184-13.271-0.455c-3.98-0.164-8.623-0.353-13.602-0.555
			c-4.97-0.225-10.275-0.461-15.581-0.699c-5.3-0.268-10.603-0.531-15.575-0.785c-4.973-0.267-9.609-0.521-13.583-0.74
			C54.763,370.411,49.464,370.09,49.464,370.09z"/>
		<path style="fill:#C7BBAE;" d="M49.488,373.732c0,0,5.098,0.185,12.744,0.459c3.818,0.163,8.274,0.351,13.048,0.554
			c4.77,0.224,9.864,0.464,14.956,0.703c5.087,0.267,10.179,0.533,14.946,0.783c4.773,0.271,9.227,0.529,13.042,0.746
			c7.627,0.482,12.716,0.807,12.716,0.807s-5.095-0.184-12.74-0.456c-3.818-0.163-8.275-0.353-13.051-0.557
			c-4.771-0.223-9.865-0.464-14.953-0.704c-5.091-0.267-10.179-0.534-14.952-0.783c-4.773-0.271-9.221-0.528-13.039-0.744
			C54.579,374.057,49.488,373.732,49.488,373.732z"/>
		<path style="opacity:0.5;fill:#2C6BB2;" d="M135.207,360.685l63.264-11.453C198.471,349.232,180.473,358.361,135.207,360.685z"/>
	</g>
	<g>
		<g>
			<g>
				<path style="fill:#E96FA3;" d="M205.43,329.442l-76.275,12.709c0,0,3.243-0.303,6.004,1.972
					c2.467,2.035,4.017,4.792,3.672,7.751c-0.436,3.753-0.791,8.432-5.941,9.292l-1.266,0.285l73.105-14.093
					C204.729,347.358,214.893,340.608,205.43,329.442z"/>
				<path style="fill:#B54A79;" d="M131.785,362.06l-0.353-1.211l1.267-0.287c4.479-0.746,4.945-4.785,5.35-8.347l0.049-0.403
					c0.297-2.549-0.961-5.193-3.453-7.244c-2.412-1.982-5.307-1.797-5.408-1.792l-0.221-1.236l76.737-12.786l0.275,0.327
					c9.758,11.519-0.734,18.699-0.841,18.77l-0.292,0.113L131.785,362.06z M133.011,342.146c0.864,0.327,1.786,0.807,2.66,1.526
					c2.816,2.321,4.235,5.332,3.894,8.261l-0.047,0.401c-0.29,2.53-0.629,5.473-2.446,7.426l67.325-12.98
					c1.129-0.809,8.734-6.843,0.706-16.645L133.011,342.146z"/>
			</g>
			<path style="opacity:0.5;fill:#E85D81;" d="M205.43,329.442l-4.709,0.788c0.482,0.364,0.865,0.991,0.582,2.649
				c-1.195,6.986-14.33,9.113-20.715,10.331c-11.893,2.271-39.789,6.968-41.764,7.368c0.033,0.43,0.046,0.856,0.006,1.295
				c-0.445,5.172-2.058,8.717-7.207,9.577l73.105-14.093C204.729,347.358,214.893,340.608,205.43,329.442z"/>
			<path style="opacity:0.7;fill:#E85D81;" d="M207.826,332.886c0,1.344-0.321,2.738-0.906,4.015
				c-2.984,6.467-12.951,7.624-20.233,9.237c-12.217,2.704-44.767,9.113-48.716,10.067c-0.968,2.778-2.813,4.655-6.348,5.246
				l73.105-14.093C204.729,347.358,212.811,341.978,207.826,332.886z"/>
			<g>
				<path style="fill:#FFFCF8;" d="M43.853,338.397c0,0,6.479,10.063,0.131,18.708l86.454,4.607c0,0,7.869-0.488,7.807-9.549
					c-0.059-8.211-6.581-10.022-10.695-10.043C122.06,342.099,43.853,338.397,43.853,338.397z"/>
				<path style="fill:#C7BBAE;" d="M130.439,362.022h-0.021l-87.066-4.637l0.32-0.443c6.162-8.395-0.078-18.297-0.143-18.397
					l-0.318-0.49l0.66,0.029c0.784,0.039,78.259,3.703,83.683,3.728c8.098,0.037,11.02,5.372,11.057,10.35
					c0.066,9.248-8.063,9.853-8.146,9.861H130.439z M44.612,356.829l85.821,4.569c0.541-0.042,7.5-0.741,7.441-9.23
					c-0.063-8.988-7.92-9.724-10.326-9.737c-5.178-0.022-75.648-3.343-83.089-3.696C45.63,340.839,49.719,349.321,44.612,356.829z"
					/>
			</g>
			<path style="opacity:0.5;fill:#FDEEE0;" d="M127.549,342.12c-0.224,0-0.585-0.006-1.039-0.02
				c3.404,1.267,5.489,3.684,3.986,8.313c-1.002,3.092-5.374,3.762-8.56,4.007c-6.551,0.493-13.045,0.917-19.629,0.816
				c-7.316-0.112-14.561-0.727-21.858-1.049c-5.377-0.234-10.895-0.179-16.188-1.126c-4.313-0.771-9.855-2.032-11.993-5.725
				c-1.161-2.001-1.752-4.366-3.249-6.194c-1.126-1.375-2.561-2.097-4.139-2.701c-0.663-0.028-1.027-0.044-1.027-0.044
				s6.479,10.063,0.131,18.708l86.454,4.607c0,0,7.869-0.488,7.807-9.549C138.186,343.952,131.663,342.141,127.549,342.12z"/>
			<path style="opacity:0.5;fill:#DDD6D1;" d="M133.875,343.736c1.646,1.481,3.219,6.587,1.656,9.647
				c-2.316,4.536-8.215,5.474-13.723,5.449c-7.192-0.032-14.321-0.416-21.525-0.49c-8.134-0.09-16.263-0.103-24.384-0.633
				c-6.041-0.396-12.553-0.435-18.497-1.518c-4.067-0.741-6.865-2.391-8.054-5.895c-1.3-3.83-1.527-8.602-5.14-11.286
				c1.254,2.28,5.209,10.698-0.224,18.095l86.454,4.607c0,0,7.869-0.488,7.807-9.549
				C138.207,347.725,136.281,345.159,133.875,343.736z"/>
		</g>
		<path style="fill:#C7BBAE;" d="M48.661,341.397c0,0,5.035,0.155,12.591,0.393c3.777,0.143,8.181,0.309,12.904,0.485
			c4.718,0.203,9.75,0.414,14.782,0.627c5.032,0.24,10.063,0.48,14.781,0.704c4.717,0.251,9.117,0.479,12.889,0.678
			c7.544,0.447,12.572,0.743,12.572,0.743s-5.038-0.158-12.59-0.393c-3.778-0.146-8.185-0.307-12.905-0.485
			c-4.718-0.201-9.75-0.411-14.785-0.63c-5.035-0.237-10.063-0.479-14.781-0.704c-4.717-0.247-9.114-0.478-12.889-0.678
			C53.69,341.692,48.661,341.397,48.661,341.397z"/>
		<path style="fill:#C7BBAE;" d="M51.01,346.069c0,0,4.428,0.165,11.069,0.419c3.314,0.15,7.186,0.327,11.333,0.515
			c4.145,0.207,8.567,0.435,12.985,0.655c4.422,0.256,8.844,0.504,12.986,0.74c4.142,0.26,8.007,0.502,11.324,0.706
			c6.622,0.462,11.038,0.768,11.038,0.768s-4.429-0.165-11.069-0.416c-3.314-0.153-7.182-0.33-11.333-0.52
			c-4.145-0.208-8.564-0.43-12.985-0.656c-4.425-0.253-8.844-0.503-12.983-0.738c-4.148-0.261-8.01-0.497-11.324-0.707
			C55.426,346.378,51.01,346.069,51.01,346.069z"/>
		<path style="fill:#C7BBAE;" d="M49.464,351.594c0,0,5.309,0.183,13.272,0.454c3.98,0.164,8.622,0.35,13.598,0.551
			c4.973,0.223,10.276,0.463,15.578,0.701c5.306,0.267,10.608,0.535,15.578,0.779c4.973,0.275,9.609,0.527,13.586,0.744
			c7.951,0.485,13.25,0.804,13.25,0.804s-5.311-0.182-13.271-0.458c-3.98-0.156-8.623-0.346-13.602-0.549
			c-4.97-0.225-10.275-0.461-15.581-0.7c-5.3-0.267-10.603-0.531-15.575-0.783c-4.973-0.267-9.609-0.525-13.583-0.741
			C54.763,351.916,49.464,351.594,49.464,351.594z"/>
		<path style="fill:#C7BBAE;" d="M49.488,355.234c0,0,5.098,0.183,12.744,0.459c3.818,0.161,8.274,0.351,13.048,0.551
			c4.77,0.227,9.864,0.467,14.956,0.707c5.087,0.269,10.179,0.532,14.946,0.785c4.773,0.272,9.227,0.525,13.042,0.744
			c7.627,0.485,12.716,0.809,12.716,0.809s-5.095-0.185-12.74-0.462c-3.818-0.163-8.275-0.347-13.051-0.556
			c-4.771-0.224-9.865-0.459-14.953-0.702c-5.091-0.268-10.179-0.534-14.952-0.784c-4.773-0.275-9.221-0.525-13.039-0.744
			C54.579,355.554,49.488,355.234,49.488,355.234z"/>
		<path style="opacity:0.5;fill:#2C6BB2;" d="M135.207,342.191l63.264-11.455C198.471,330.736,180.473,339.862,135.207,342.191z"/>
	</g>
	<g>
		<g>
			<g>
				<path style="fill:#ED7207;" d="M205.236,313.966l-75.869,11.639c0,0,3.261-0.248,6.027,1.719
					c2.465,1.755,3.914,4.125,3.638,6.666c-0.489,4.438-2.138,7.474-7.325,8.191l0,0l72.699-12.847
					C204.406,329.334,214.678,323.591,205.236,313.966z"/>
				<path style="fill:#B13B07;" d="M131.828,342.792l-0.274-1.226l1.019-0.182c3.572-0.789,5.234-2.95,5.723-7.453
					c0.246-2.23-0.955-4.41-3.377-6.132c-2.01-1.426-4.297-1.581-5.184-1.581c-0.182,0-0.287,0.005-0.303,0.008l-0.195-1.234
					l76.296-11.707l0.273,0.282c3.222,3.285,4.581,6.51,4.046,9.582c-0.744,4.258-4.867,6.609-5.041,6.707l-0.256,0.092
					l-71.646,12.653C132.563,342.679,132.201,342.742,131.828,342.792z M133.465,325.608c0.787,0.28,1.611,0.673,2.398,1.238
					c2.764,1.963,4.189,4.586,3.9,7.2c-0.243,2.242-0.816,4.77-2.761,6.558l67.104-11.855c0.615-0.382,3.712-2.448,4.287-5.8
					c0.451-2.614-0.709-5.406-3.45-8.304L133.465,325.608z"/>
			</g>
			<path style="opacity:0.5;fill:#BE6422;" d="M205.236,313.966l-4.938,0.757c1.288,0.77,2.042,1.823,1.739,3.244
				c-1.248,5.99-14.482,7.756-20.921,8.773c-11.986,1.893-40.09,5.803-42.081,6.14c0.027,0.367,0.037,0.733-0.003,1.109
				c-0.489,4.438-2.138,7.474-7.325,8.191l72.699-12.847C204.406,329.334,214.678,323.591,205.236,313.966z"/>
			<path style="opacity:0.7;fill:#BE6422;" d="M207.623,316.929c-0.012,1.152-0.339,2.349-0.939,3.439
				c-3.05,5.536-12.108,7.559-19.452,8.913c-12.311,2.265-45.119,7.621-49.096,8.421c-0.995,2.381-2.866,3.985-6.429,4.479
				l72.699-12.847C204.406,329.334,212.574,324.756,207.623,316.929z"/>
			<g>
				<path style="fill:#FFFCF8;" d="M43.539,322c0,0,6.454,8.669,0,16.06l86.976,4.337c0,0,7.927-0.382,7.927-8.159
					c0-7.051-6.551-8.633-10.693-8.667C122.222,325.522,43.539,322,43.539,322z"/>
				<path style="fill:#C7BBAE;" d="M130.515,342.688l-0.021-0.004l-87.599-4.364l0.374-0.431c6.23-7.142,0.046-15.65-0.013-15.737
					l-0.352-0.47l0.657,0.028c0.784,0.038,78.736,3.525,84.191,3.569c5.33,0.046,11.025,2.421,11.025,8.958
					c0,7.956-8.163,8.443-8.247,8.446L130.515,342.688z M44.177,337.802l86.335,4.305c0.514-0.034,7.586-0.582,7.586-7.869
					c0-7.691-7.926-8.358-10.353-8.377c-5.21-0.043-76.168-3.214-83.6-3.543C45.347,324.202,49.287,331.425,44.177,337.802z"/>
			</g>
			<path style="opacity:0.5;fill:#FDEEE0;" d="M127.748,325.57c-0.227,0-0.588-0.011-1.049-0.024
				c3.424,1.104,5.502,3.188,3.955,7.154c-1.033,2.646-5.436,3.207-8.645,3.396c-6.597,0.396-13.138,0.735-19.763,0.616
				c-7.353-0.129-14.647-0.69-21.982-0.996c-5.412-0.227-10.966-0.2-16.284-1.041c-4.338-0.681-9.908-1.785-12.034-4.964
				c-1.155-1.725-1.727-3.752-3.224-5.333c-1.121-1.181-2.564-1.806-4.145-2.333c-0.669-0.029-1.04-0.046-1.04-0.046
				s6.454,8.669,0,16.06l86.976,4.337c0,0,7.927-0.382,7.927-8.159C138.441,327.186,131.891,325.604,127.748,325.57z"/>
			<path style="opacity:0.5;fill:#DDD6D1;" d="M134.1,326.983c1.649,1.278,3.195,5.673,1.597,8.284
				c-2.362,3.887-8.306,4.664-13.845,4.619c-7.242-0.061-14.411-0.422-21.655-0.517c-8.194-0.114-16.375-0.161-24.541-0.651
				c-6.08-0.366-12.634-0.433-18.605-1.386c-4.092-0.655-6.89-2.08-8.063-5.094c-1.282-3.298-1.476-7.39-5.091-9.708
				c1.248,1.96,5.166,9.202-0.358,15.528l86.976,4.337c0,0,7.927-0.382,7.927-8.159C138.441,330.42,136.518,328.217,134.1,326.983z"
				/>
		</g>
		<path style="fill:#C7BBAE;" d="M48.356,324.6c0,0,5.072,0.15,12.671,0.38c3.796,0.137,8.231,0.295,12.98,0.47
			c4.749,0.189,9.808,0.393,14.874,0.595c5.063,0.232,10.12,0.462,14.871,0.675c4.739,0.24,9.174,0.459,12.967,0.649
			c7.59,0.421,12.648,0.703,12.648,0.703s-5.066-0.152-12.669-0.382c-3.794-0.135-8.228-0.296-12.98-0.47
			c-4.746-0.186-9.809-0.393-14.872-0.596c-5.063-0.229-10.129-0.458-14.872-0.677c-4.748-0.235-9.174-0.454-12.967-0.643
			C53.419,324.88,48.356,324.6,48.356,324.6z"/>
		<path style="fill:#C7BBAE;" d="M50.693,328.617c0,0,4.453,0.158,11.128,0.397c3.339,0.142,7.232,0.308,11.405,0.487
			c4.173,0.197,8.62,0.405,13.067,0.616c4.443,0.239,8.894,0.475,13.06,0.698c4.17,0.238,8.06,0.464,11.393,0.659
			c6.663,0.435,11.106,0.723,11.106,0.723s-4.453-0.161-11.128-0.397c-3.339-0.144-7.235-0.31-11.402-0.485
			c-4.17-0.195-8.62-0.409-13.07-0.623c-4.447-0.232-8.891-0.472-13.061-0.692c-4.167-0.24-8.057-0.469-11.389-0.662
			C55.136,328.907,50.693,328.617,50.693,328.617z"/>
		<path style="fill:#C7BBAE;" d="M49.097,333.352c0,0,5.337,0.174,13.347,0.435c4.005,0.156,8.679,0.338,13.683,0.53
			c5.001,0.211,10.337,0.438,15.674,0.665c5.337,0.255,10.673,0.506,15.671,0.743c5.001,0.262,9.668,0.498,13.667,0.706
			c7.998,0.456,13.331,0.759,13.331,0.759s-5.343-0.173-13.352-0.435c-4.002-0.155-8.67-0.334-13.674-0.529
			c-5.007-0.211-10.344-0.438-15.677-0.667c-5.333-0.25-10.671-0.506-15.674-0.744c-4.997-0.256-9.665-0.496-13.664-0.704
			C54.427,333.655,49.097,333.352,49.097,333.352z"/>
		<path style="fill:#C7BBAE;" d="M49.097,336.477c0,0,5.125,0.179,12.814,0.436c3.84,0.155,8.321,0.334,13.126,0.527
			c4.801,0.213,9.923,0.44,15.045,0.67c5.119,0.247,10.241,0.503,15.04,0.741c4.802,0.256,9.279,0.495,13.116,0.702
			c7.674,0.457,12.797,0.764,12.797,0.764s-5.126-0.177-12.816-0.439c-3.847-0.154-8.33-0.336-13.125-0.525
			c-4.802-0.214-9.927-0.441-15.052-0.668c-5.119-0.253-10.238-0.506-15.036-0.742c-4.802-0.26-9.277-0.497-13.117-0.702
			C54.215,336.781,49.097,336.477,49.097,336.477z"/>
		<path style="opacity:0.5;fill:#2C6BB2;" d="M135.453,325.659l63.756-9.546C199.209,316.113,181.026,323.867,135.453,325.659z"/>
	</g>
	<g>
		<g>
			<g>
				<path style="fill:#2C6BB2;" d="M205.682,298.21l-75.87,11.639c0,0,3.261-0.249,6.025,1.715c2.471,1.756,3.918,4.129,3.638,6.668
					c-0.485,4.439-2.134,7.476-7.322,8.188l0,0l72.699-12.841C204.851,313.578,215.123,307.831,205.682,298.21z"/>
				<path style="fill:#07387A;" d="M132.151,326.999c-0.323,0-0.61-0.196-0.669-0.475c-0.071-0.309,0.165-0.607,0.525-0.669
					l1.022-0.18c3.6-0.796,5.271-2.97,5.766-7.497c0.25-2.247-0.961-4.437-3.397-6.169c-2.02-1.439-4.322-1.596-5.222-1.596
					c-0.417,0-0.33,0.015-0.361,0.015c-0.342,0-0.632-0.217-0.682-0.507c-0.043-0.306,0.196-0.588,0.557-0.643l75.871-11.643
					c0.252-0.036,0.488,0.041,0.646,0.204c3.211,3.272,4.571,6.485,4.037,9.542c-0.741,4.242-4.843,6.58-5.02,6.678
					c-0.072,0.039-0.15,0.068-0.237,0.085l-71.647,12.655c-0.345,0.077-0.703,0.141-1.079,0.19
					C132.223,326.993,132.186,326.999,132.151,326.999z M133.714,309.835c0.837,0.276,1.718,0.688,2.562,1.289
					c2.75,1.953,4.166,4.565,3.88,7.165c-0.249,2.274-0.837,4.85-2.869,6.635l67.288-11.889c0.6-0.367,3.733-2.451,4.318-5.833
					c0.455-2.638-0.713-5.449-3.484-8.365L133.714,309.835z"/>
			</g>
			<path style="opacity:0.5;fill:#2C6BB2;" d="M205.682,298.21l-4.939,0.753c1.288,0.771,2.041,1.825,1.743,3.249
				c-1.255,5.988-14.486,7.752-20.925,8.77c-11.987,1.895-40.087,5.805-42.081,6.138c0.027,0.366,0.037,0.737-0.007,1.112
				c-0.485,4.439-2.134,7.476-7.322,8.188l72.699-12.841C204.851,313.578,215.123,307.831,205.682,298.21z"/>
			<path style="opacity:0.7;fill:#2C6BB2;" d="M208.068,301.17c-0.013,1.154-0.34,2.349-0.939,3.443
				c-3.051,5.535-12.105,7.56-19.453,8.906c-12.312,2.271-45.121,7.628-49.095,8.425c-0.996,2.384-2.866,3.986-6.43,4.475
				l72.699-12.841C204.851,313.578,213.022,308.997,208.068,301.17z"/>
			<g>
				<path style="fill:#FFFCF8;" d="M43.984,306.242c0,0,6.454,8.67,0,16.062l86.973,4.331c0,0,7.926-0.377,7.926-8.156
					c0-7.049-6.548-8.63-10.689-8.667C122.667,309.768,43.984,306.242,43.984,306.242z"/>
				<path style="fill:#C7BBAE;" d="M130.957,326.926h-0.019l-87.599-4.361l0.37-0.433c6.236-7.143,0.049-15.647-0.009-15.735
					l-0.352-0.474l0.656,0.032c0.784,0.033,78.733,3.525,84.192,3.569c5.333,0.047,11.024,2.419,11.024,8.954
					c0,7.959-8.162,8.443-8.247,8.447H130.957z M44.622,322.046l86.335,4.299c0.514-0.025,7.58-0.575,7.58-7.866
					c0-7.694-7.92-8.356-10.347-8.378c-5.21-0.042-76.169-3.21-83.603-3.54C45.792,308.449,49.732,315.669,44.622,322.046z"/>
			</g>
			<path style="opacity:0.5;fill:#FDEEE0;" d="M128.193,309.811c-0.224-0.003-0.585-0.009-1.049-0.021
				c3.424,1.102,5.505,3.186,3.955,7.154c-1.033,2.649-5.435,3.203-8.644,3.397c-6.598,0.393-13.138,0.733-19.763,0.613
				c-7.356-0.128-14.648-0.688-21.982-0.995c-5.415-0.226-10.97-0.197-16.285-1.038c-4.338-0.686-9.908-1.79-12.033-4.97
				c-1.151-1.722-1.73-3.754-3.224-5.33c-1.12-1.182-2.565-1.809-4.148-2.333c-0.668-0.026-1.036-0.047-1.036-0.047
				s6.454,8.67,0,16.062l86.973,4.331c0,0,7.926-0.377,7.926-8.156C138.883,311.43,132.335,309.849,128.193,309.811z"/>
			<g>
				<polygon style="fill:#2C6BB2;" points="116.592,293.367 43.984,306.242 131.277,309.621 205.682,298.21 				"/>
				<path style="fill:#07387A;" d="M131.277,310.201c-0.01,0-0.021,0-0.031,0l-87.29-3.382c-0.342-0.014-0.619-0.24-0.65-0.53
					c-0.028-0.29,0.206-0.551,0.542-0.608l72.608-12.878c0.057-0.014,0.125-0.016,0.181-0.014l89.093,4.843
					c0.346,0.016,0.619,0.247,0.635,0.541c0.018,0.293-0.221,0.554-0.558,0.603l-74.41,11.415
					C131.361,310.198,131.314,310.201,131.277,310.201z M49.404,305.876l81.823,3.165l68.834-10.56l-83.419-4.529L49.404,305.876z"
					/>
			</g>
			<path style="opacity:0.5;fill:#2C6BB2;" d="M122.959,298.38c-3.308-1.322-8.579-1.676-11.019-1.808
				c-2.377-0.126-5.748-0.55-8.063-0.132c-13.145,2.367-26.22,5.038-39.29,7.605c-2.636,0.518-5.256,1.072-7.873,1.64
				c0.059,0.005,44.944,1.392,59.097,1.922c3.239-0.982,9.304-2.857,9.97-5.77C126.146,300.258,124.886,299.155,122.959,298.38z"/>
			<path style="opacity:0.7;fill:#2C6BB2;" d="M116.592,293.367l-8.613,1.531c9.842-0.251,19.843-0.428,29.603,0.469
				c3.249,0.298,14.457,1.06,15.176,4.556c0.859,4.17-8.934,5.568-12.923,6.503c-5.157,1.213-10.403,2.134-15.693,2.922l7.136,0.273
				l74.404-11.411L116.592,293.367z"/>
			<path style="opacity:0.5;fill:#DDD6D1;" d="M134.545,311.227c1.648,1.281,3.192,5.668,1.596,8.288
				c-2.361,3.884-8.303,4.661-13.844,4.616c-7.242-0.06-14.412-0.425-21.656-0.522c-8.193-0.108-16.374-0.152-24.543-0.645
				c-6.078-0.37-12.628-0.431-18.603-1.388c-4.089-0.651-6.889-2.08-8.063-5.095c-1.282-3.293-1.475-7.388-5.094-9.707
				c1.251,1.962,5.166,9.206-0.354,15.529l86.973,4.331c0,0,7.926-0.377,7.926-8.156
				C138.883,314.667,136.959,312.464,134.545,311.227z"/>
		</g>
		<path style="fill:#C7BBAE;" d="M48.804,308.841c0,0,5.069,0.153,12.666,0.377c3.799,0.14,8.234,0.298,12.979,0.472
			c4.749,0.19,9.815,0.396,14.878,0.599c5.063,0.229,10.123,0.461,14.871,0.678c4.743,0.236,9.173,0.456,12.967,0.647
			c7.59,0.419,12.646,0.702,12.646,0.702s-5.065-0.152-12.669-0.38c-3.796-0.137-8.227-0.297-12.979-0.468
			c-4.746-0.192-9.809-0.397-14.871-0.601c-5.066-0.23-10.127-0.462-14.872-0.678c-4.749-0.232-9.173-0.457-12.967-0.644
			C53.86,309.123,48.804,308.841,48.804,308.841z"/>
		<path style="fill:#C7BBAE;" d="M51.138,312.861c0,0,4.453,0.155,11.128,0.397c3.339,0.14,7.232,0.307,11.402,0.485
			c4.173,0.194,8.623,0.409,13.07,0.62c4.443,0.234,8.894,0.471,13.061,0.693c4.17,0.241,8.06,0.466,11.393,0.658
			c6.665,0.433,11.106,0.728,11.106,0.728s-4.453-0.16-11.129-0.403c-3.342-0.14-7.235-0.307-11.401-0.481
			c-4.17-0.201-8.62-0.412-13.07-0.62c-4.447-0.238-8.894-0.475-13.06-0.697c-4.167-0.238-8.057-0.466-11.39-0.663
			C55.578,313.148,51.138,312.861,51.138,312.861z"/>
		<path style="fill:#C7BBAE;" d="M49.545,317.594c0,0,5.334,0.177,13.344,0.44c4.005,0.152,8.679,0.331,13.683,0.527
			c5.004,0.214,10.337,0.44,15.674,0.664c5.337,0.253,10.671,0.506,15.671,0.746c5.003,0.254,9.669,0.496,13.668,0.7
			c7.997,0.459,13.331,0.766,13.331,0.766s-5.343-0.179-13.353-0.44c-4.002-0.153-8.67-0.334-13.677-0.525
			c-5.003-0.214-10.337-0.443-15.677-0.67c-5.33-0.255-10.667-0.506-15.671-0.742c-4.998-0.256-9.669-0.499-13.667-0.702
			C54.872,317.898,49.545,317.594,49.545,317.594z"/>
		<path style="fill:#C7BBAE;" d="M49.545,320.722c0,0,5.119,0.172,12.805,0.435c3.846,0.159,8.331,0.333,13.135,0.525
			c4.798,0.216,9.923,0.443,15.043,0.667c5.119,0.256,10.241,0.512,15.039,0.743c4.798,0.261,9.279,0.501,13.116,0.704
			c7.677,0.459,12.793,0.764,12.793,0.764s-5.125-0.176-12.812-0.437c-3.843-0.153-8.327-0.335-13.131-0.527
			c-4.795-0.217-9.921-0.438-15.043-0.667c-5.122-0.254-10.241-0.508-15.04-0.744c-4.802-0.258-9.279-0.494-13.12-0.706
			C54.657,321.022,49.545,320.722,49.545,320.722z"/>
		<path style="opacity:0.5;fill:#2C6BB2;" d="M135.898,309.903l63.756-9.546C199.654,300.357,181.471,308.113,135.898,309.903z"/>
	</g>
</g>
<g>
	<g>
		<g>
			<g>
				<g>
					<path style="fill:#E2E2E2;" d="M107.986,20.042c-0.012-0.005-0.035-0.012-0.035-0.012S107.962,20.037,107.986,20.042z"/>
					<path style="fill:#EAEAEA;" d="M176.373,47.478c0,0-24.574-11.324-31.887-16.48c-7.012-4.94-29.716-24.198-31.578-25.779
						c0.25,0.759,0.883,3.609-1.219,9.06c-2.249,5.827-3.486,5.82-3.704,5.764c0.749,0.266,24.222,8.603,33.055,14.984
						c8.975,6.486,30.99,23.562,30.99,23.562l1.656,1.421C179.607,54.846,176.373,47.478,176.373,47.478z"/>
					<path style="fill:#CCCCCC;" d="M141.041,35.026c-8.833-6.382-32.306-14.719-33.055-14.984
						c-0.023-0.005-0.035-0.012-0.035-0.012s0.011,0.007,0.035,0.012c0,0-1.42-2.942,1.597-9.787l2.925,1.569
						c1.08-3.863,0.609-5.97,0.4-6.605c-0.079-0.068-0.123-0.106-0.123-0.106s-2.087-0.322-4.812,4.727
						c-3.156,5.846-2.667,11.573-2.667,11.573s30.833,13.281,36.587,16.373c5.755,3.09,16.262,16.175,26.116,23.552
						c2.191-0.786,4.021-2.749,4.021-2.749S150.016,41.513,141.041,35.026z"/>
					<path style="fill:#E2E2E2;" d="M108.086,20.05l-0.1-0.008C108.006,20.049,108.044,20.052,108.086,20.05z"/>
					<path style="fill:#BFBEBE;" d="M107.986,20.042l0.1,0.008c0.379-0.011,1.581-0.524,3.604-5.772
						c0.342-0.89,0.606-1.702,0.818-2.454l-2.925-1.569C106.566,17.1,107.986,20.042,107.986,20.042z"/>
				</g>
				<path style="opacity:0.8;fill:#EAEAEA;" d="M176.373,47.478c0,0-0.762-0.351-2.039-0.948c2.083,4.077-0.256,8.589-3.755,7.367
					c-4.214-1.47-10.073-7.058-17.847-12.498c-5.404-3.785-5.877-7.038-3.476-7.466c-1.926-1.091-3.578-2.096-4.77-2.935
					c-1.477-1.04-3.655-2.722-6.184-4.732c1.539,3.14-0.655,4.322-3.039,3.236c-3.297-1.502-7.165-3.213-17.146-7.755
					c-7.702-3.506-4.801-11.242,0.89-11.38c-3.208-2.696-5.552-4.684-6.099-5.148c0.25,0.759,0.883,3.609-1.219,9.06
					c-2.249,5.827-3.486,5.82-3.704,5.764c0.749,0.266,24.222,8.603,33.055,14.984c8.975,6.486,30.99,23.562,30.99,23.562
					l1.656,1.421C179.607,54.846,176.373,47.478,176.373,47.478z"/>
			</g>
			<path style="fill:#FFCE33;" d="M140.391,27.912c0,0,0.617,3.387-3.1,7.635c-0.471,0.537,1.113,1.216,3.617,2.858
				c2.502,1.646,2.578,1.307,3.175,0.837c0.598-0.472,3.126-3.778,2.905-6.631c-0.091-1.176-0.821-1.36-3.045-3.027
				C141.979,28.111,140.354,27.196,140.391,27.912z"/>
			<path style="fill:#FFBE2C;" d="M146.842,19.627c-0.353-0.803-1.559-0.59-3.609-0.547c-2.051,0.044-3.653-0.857-3.146,1.296
				c0.507,2.153,1.646,7.72,1.646,7.72c0.441,0.247,0.971,0.595,1.545,1.002c0.457-0.572,0.715-1.064,0.715-1.064
				C145.148,25.975,147.197,20.432,146.842,19.627z"/>
			<path style="fill:#FFA727;" d="M155.777,24.548c-2.275-1.876-2.807-3.593-3.225-3.408c-3.685,1.611-8.561,6.894-8.561,6.894
				s-0.258,0.491-0.715,1.064c0.193,0.139,0.395,0.285,0.6,0.438c0.84-0.127,1.802-0.243,1.802-0.243
				C149.943,27.034,158.053,26.423,155.777,24.548z"/>
			<path style="fill:#FFBE2C;" d="M159.063,30.892c-8.085-2.112-13.385-1.601-13.385-1.601s-0.962,0.116-1.802,0.243
				c0.022,0.017,0.042,0.03,0.066,0.049c1.276,0.957,2.061,1.426,2.516,1.873c4.918,0.569,10.824,5.308,11.061,3.516
				C157.76,33.179,160.155,31.178,159.063,30.892z"/>
			<path style="opacity:0.4;fill:#F2BF30;" d="M144.979,30.336L144.979,30.336c2.22,2.188-0.84,7.755-3.393,6.343
				c-1.871-1.035-2.711-1.918-2.658-3.369c-0.42,0.707-0.955,1.459-1.637,2.237c-0.471,0.537,1.113,1.216,3.617,2.858
				c2.502,1.646,2.578,1.307,3.175,0.837c0.598-0.472,3.126-3.778,2.905-6.631C146.912,31.641,146.4,31.345,144.979,30.336z"/>
			<path style="opacity:0.5;fill:#F2BF30;" d="M143.232,19.08c-0.709,0.014-1.36-0.082-1.893-0.127
				c0.552,0.27,1.186,0.54,1.821,0.537c1.982-0.009,1.554,0.888,1.126,4.205c-0.369,2.868-1.647,5.14-2.834,3.051
				c0.169,0.808,0.279,1.35,0.279,1.35c0.441,0.247,0.971,0.595,1.545,1.002c0.457-0.572,0.715-1.064,0.715-1.064
				c1.156-2.059,3.205-7.602,2.85-8.407C146.488,18.824,145.283,19.037,143.232,19.08z"/>
			<path style="opacity:0.4;fill:#F2BF30;" d="M155.777,24.548c-1.791-1.477-2.5-2.852-2.926-3.28
				c0.166,0.441,0.354,1.044,0.689,1.742c1.009,2.105,1.299,2.016-2.002,3.28c-2.994,1.144-8.105,3.824-6.994,1.166
				c-0.35,0.358-0.553,0.578-0.553,0.578s-0.258,0.491-0.715,1.064c0.193,0.139,0.395,0.285,0.6,0.438
				c0.84-0.127,1.802-0.243,1.802-0.243C149.943,27.034,158.053,26.423,155.777,24.548z"/>
			<path style="opacity:0.5;fill:#F2BF30;" d="M157.407,33.446c-1.331,1.475-2.321-0.627-7.025-2.389
				c-2.554-0.96-3.091-1.488-2.665-1.816c-1.314-0.018-2.038,0.05-2.038,0.05s-0.962,0.116-1.802,0.243
				c0.022,0.017,0.042,0.03,0.066,0.049c1.276,0.957,2.061,1.426,2.516,1.873c4.918,0.569,10.824,5.308,11.061,3.516
				c0.122-0.914,0.8-1.879,1.296-2.645C158.334,32.645,157.809,33.002,157.407,33.446z"/>
		</g>
		<g>
			<path style="fill:#1A1E28;" d="M166.63,219.277c-7.601,7.288-19.913,15.973-35.61,16.236c0,0,1.143-10.673-3.846-33.636
				c0,0,2.938,21.125-5.959,35.486c0,0-10.743,0.355-22.556-2.77l-2.65,4.203c0,0,9.898,7.605,37.063,4.034
				c27.165-3.571,37.026-19.949,37.026-19.949L166.63,219.277z"/>
			<g>
				<path style="fill:#EF9C07;" d="M49.963,183.158c-8.921-14.973-17.882-19.294-17.882-19.294s1.609,9.819,11.103,25.1
					c9.494,15.28,15.108,18.541,15.108,18.541S58.886,198.132,49.963,183.158z"/>
				<path style="fill:#FFCE33;" d="M38.269,162.648c0,0-0.472-0.5-1.116-0.354c-1.036,0.234-5.071,1.569-5.071,1.569
					s8.961,4.321,17.882,19.294c8.922,14.974,8.329,24.347,8.329,24.347c2.786-1.599,5.279-3.307,7.521-5.085
					C58.591,173.309,38.269,162.648,38.269,162.648z"/>
			</g>
			<g>
				<path style="fill:#EF9C07;" d="M140.137,51.153c0,0,0.898,7.354,11.256,24.57c10.357,17.216,17.421,22.419,17.421,22.419
					C156.933,67.963,141.409,51.163,140.137,51.153z"/>
				<path style="fill:#FFCE33;" d="M139.893,50.369c-1.272-0.011-3.972,2.559-3.969,3.082c0.002,0.43,0.956,3.091,0.956,3.091
					s2.993,21.134,23.058,46.793c0,0,1.27,1.791,1.992,1.561c1.38-0.443,6.641-7.538,6.641-7.538s-7.063-5.203-17.421-22.419
					C140.792,57.723,139.893,50.369,139.893,50.369z"/>
			</g>
			<g>
				<g>
					<path style="fill:#EF9C07;" d="M68.767,137.946c0.043,0.229,0.6,0.996,0.6,0.996s15.449,2.317,29.979-8.825
						c-0.422-0.725-0.655-1.109-0.655-1.109C86.202,138.945,68.767,137.946,68.767,137.946z"/>
					<path style="fill:#FFCE33;" d="M80.558,122.421c-5.911,6.559-11.836,15.296-11.791,15.525c0,0,17.435,0.999,29.923-8.938
						C93.501,125.238,80.558,122.421,80.558,122.421z"/>
				</g>
				<path style="opacity:0.5;fill:#FFCE33;" d="M80.558,122.421c-2.084,2.313-4.168,4.896-5.996,7.281
					c4.887-1.021,6.961-1.564,9.617-2.599c3.023-1.178,11.62,1.455,7.362,4.116c-3.772,2.357-12.946,5.771-21.319,4.448
					c-0.925,1.346-1.469,2.208-1.455,2.278c0,0,17.435,0.999,29.923-8.938C93.501,125.238,80.558,122.421,80.558,122.421z"/>
			</g>
			<g>
				<g>
					<path style="fill:#FFCE33;" d="M114.789,98.134c-1.773,0.632-3.481,1.334-6.283,1.735c-8.65,1.236-11.121,8.154-11.121,8.154
						c-0.156,9.076,1.306,20.984,1.306,20.984S112.452,117.088,114.789,98.134z"/>
					<path style="fill:#EF9C07;" d="M98.69,129.008c0,0,0.233,0.384,0.655,1.109c16.328-12.518,16.975-31.557,16.975-31.557
						s-1.131-0.361-1.531-0.427C112.452,117.088,98.69,129.008,98.69,129.008z"/>
				</g>
				<path style="opacity:0.5;fill:#FFCE33;" d="M113.76,98.506c-3.179,23.759-17.999,22.24-13.577,17.276
					c4.237-4.754,7.817-10.201,9.368-16.086c-0.333,0.062-0.678,0.119-1.045,0.173c-8.65,1.236-11.121,8.154-11.121,8.154
					c-0.156,9.076,1.306,20.984,1.306,20.984s13.762-11.92,16.099-30.874C114.643,98.188,113.902,98.453,113.76,98.506z"/>
			</g>
			<g>
				<path style="fill:#233D68;" d="M136.88,56.542c0,0,0.213,5.817-3.766,22.729c-3.978,16.909-16.794,19.29-16.794,19.29
					s-0.647,19.038-16.975,31.557c3.568,6.125,20.766,36.857,27.828,71.761c4.988,22.963,3.846,33.636,3.846,33.636
					c27.174-0.457,44.209-26.152,44.209-26.152s-13.563-19.878-22.742-41.328c-9.18-21.449-25.266-46.996-25.266-46.996
					s9.985,1.988,20.273-5.307c10.29-7.297,12.443-12.396,12.443-12.396C139.873,77.676,136.88,56.542,136.88,56.542z"/>
				<path style="fill:#264372;" d="M99.346,130.117c-14.53,11.143-29.979,8.825-29.979,8.825s-6.735,9.716-14.821,16.089
					c-8.086,6.372-16.277,7.617-16.277,7.617s20.323,10.66,27.544,39.771c23.264-18.465,18.807-44.982,18.807-44.982
					c7.287,16.018,9.145,38.444,4.732,52.922c-4.412,14.479-5.12,18.353-5.12,18.353c15.602,9.359,36.983,8.652,36.983,8.652
					c8.417-13.586,6.242-33.214,5.982-35.296l-0.024-0.19C120.111,166.975,102.914,136.242,99.346,130.117z"/>
				<g>
					<path style="fill:#1E1E1E;" d="M79.608,147.059c0,0,0.197,0.244,0.506,0.696c0.158,0.223,0.343,0.502,0.545,0.824
						c0.202,0.322,0.448,0.679,0.674,1.092c0.23,0.408,0.481,0.852,0.745,1.321c0.273,0.467,0.523,0.978,0.784,1.502
						c0.255,0.53,0.542,1.066,0.794,1.631c0.247,0.564,0.498,1.139,0.749,1.713c0.24,0.58,0.503,1.148,0.713,1.729
						c0.215,0.578,0.425,1.147,0.629,1.698c0.208,0.551,0.392,1.088,0.569,1.595c0.16,0.516,0.308,1.002,0.447,1.451
						c0.28,0.895,0.478,1.654,0.632,2.18c0.143,0.529,0.224,0.83,0.224,0.83s-0.122-0.288-0.336-0.793
						c-0.201-0.51-0.512-1.228-0.842-2.103c-0.168-0.438-0.349-0.911-0.54-1.411c-0.211-0.494-0.435-1.013-0.652-1.557
						c-0.22-0.541-0.445-1.102-0.675-1.67c-0.214-0.574-0.483-1.139-0.727-1.71c-0.243-0.574-0.487-1.147-0.726-1.712
						c-0.253-0.558-0.5-1.107-0.741-1.639c-0.249-0.527-0.455-1.055-0.696-1.534c-0.23-0.481-0.45-0.938-0.651-1.359
						c-0.209-0.42-0.4-0.802-0.571-1.142c-0.165-0.343-0.316-0.637-0.449-0.875C79.761,147.332,79.608,147.059,79.608,147.059z"/>
				</g>
				<g>
					<path style="fill:#1E1E1E;" d="M121.435,115.089c0,0,0.224,0.118,0.587,0.375c0.371,0.246,0.873,0.635,1.465,1.12
						c0.279,0.257,0.584,0.537,0.906,0.834c0.16,0.148,0.326,0.302,0.496,0.459c0.164,0.162,0.316,0.341,0.479,0.515
						c0.32,0.354,0.652,0.721,0.989,1.093c0.33,0.38,0.624,0.797,0.94,1.198c0.306,0.409,0.617,0.813,0.909,1.224
						c0.266,0.426,0.527,0.847,0.781,1.252c0.254,0.406,0.486,0.805,0.709,1.181c0.225,0.378,0.385,0.764,0.56,1.104
						c0.339,0.684,0.588,1.272,0.778,1.675c0.183,0.405,0.279,0.64,0.279,0.64s-0.141-0.213-0.385-0.587
						c-0.233-0.378-0.587-0.904-0.97-1.558c-0.201-0.322-0.389-0.688-0.641-1.042c-0.251-0.354-0.518-0.725-0.779-1.118
						c-0.264-0.392-0.536-0.795-0.811-1.206c-0.293-0.397-0.607-0.791-0.912-1.19c-0.305-0.398-0.59-0.813-0.908-1.192
						c-0.318-0.378-0.633-0.75-0.936-1.109c-0.298-0.364-0.596-0.709-0.893-1.021c-0.293-0.317-0.57-0.62-0.827-0.895
						c-0.272-0.262-0.515-0.51-0.729-0.73c-0.211-0.223-0.412-0.399-0.574-0.55C121.631,115.254,121.435,115.089,121.435,115.089z"
						/>
				</g>
				<path style="opacity:0.5;fill:#233D68;" d="M144.184,110.08c-15.625,9.407-26.486,3.021-26.486,3.021
					s19.425,20.994,37.405,66.806c14.359,36.59-18.669,60.355-22.833,32.776c-3.677-24.344-13.949-41.663-13.961-41.68
					c0.001,0.003,0.002,0.006,0.004,0.01c0.953,2.439,1.774,4.814,2.482,7.13c2.482,7.5,4.713,15.501,6.379,23.734
					c4.988,22.963,3.846,33.636,3.846,33.636c27.174-0.457,44.209-26.152,44.209-26.152s-13.563-19.878-22.742-41.328
					c-9.18-21.449-25.266-46.996-25.266-46.996s9.985,1.988,20.273-5.307c10.29-7.297,12.443-12.396,12.443-12.396
					c-1.295-1.658-2.516-3.295-3.673-4.909C154.403,101.807,150.876,106.053,144.184,110.08z"/>
				<path style="opacity:0.5;fill:#264372;" d="M102.095,231.558c-12.229-4.071-7.057-20.271-7.12-37.663
					c-0.128-35.136-17.322-50.101-17.322-50.101c8.635,22.28-6.101,37.922-16.372,45.63c1.768,3.851,3.333,8.163,4.532,12.996
					c23.264-18.465,18.807-44.982,18.807-44.982c7.287,16.018,9.145,38.444,4.732,52.922c-4.412,14.479-5.12,18.353-5.12,18.353
					c15.602,9.359,36.983,8.652,36.983,8.652c8.417-13.586,6.242-33.214,5.982-35.296l-0.024-0.19
					c-1.666-8.233-3.896-16.234-6.379-23.734C131.961,214.684,113.596,235.385,102.095,231.558z"/>
				<path style="opacity:0.5;fill:#333333;" d="M126.215,197.441c-7.547-33.042-23.453-61.461-26.869-67.324
					c-7.379,5.66-14.992,7.844-20.704,8.626c7.056,8.528,30.951,30.313,47.574,58.7L126.215,197.441z"/>
				<path style="opacity:0.5;fill:#333333;" d="M111.748,114.92c-2.513,5.101-6.392,10.589-12.402,15.197
					c3.416,5.863,19.322,34.282,26.869,67.324C126.229,197.401,144.393,162.961,111.748,114.92z"/>
				<path style="fill:#EAEAEA;" d="M126.215,197.441c-7.547-33.042-23.453-61.461-26.869-67.324
					c-7.379,5.66-14.992,7.844-20.704,8.626c9.429,7.144,33.841,27.74,47.574,58.7L126.215,197.441z"/>
				<path style="fill:#E0E0E0;" d="M111.748,114.92c-2.513,5.101-6.392,10.589-12.402,15.197
					c3.416,5.863,19.322,34.282,26.869,67.324C126.229,197.401,138.145,162.91,111.748,114.92z"/>
			</g>
			<g>
				<g>
					<path style="fill:#2D2D2D;" d="M98.163,292.359c-0.707,2.358-1.291,4.716-1.473,6.711c-0.74,8.214,10.729,8.666,13.313,0.934
						c0.569-1.706,0.996-3.57,1.333-5.483C105.339,300.142,99.758,297.711,98.163,292.359z"/>
					<path style="fill:#EDCFB9;" d="M123.453,243.69c-5.449,0.241-9.967-0.016-13.66-0.516c-1.495,4.74-4.599,15.677-6.047,28.849
						c-0.351,3.208-0.425,2.802-1.913,4.498c-1.486,1.695-0.759,2.332-0.261,4.11c0.342,1.231-1.834,6.477-3.41,11.728
						c1.595,5.352,7.176,7.783,13.173,2.162c1.023-5.77,1.246-11.957,2.197-15.441C114.563,275.305,121.072,252.155,123.453,243.69z
						"/>
				</g>
				<path style="opacity:0.5;fill:#EDCFB9;" d="M109.794,243.175c-0.069,0.22-0.146,0.466-0.221,0.714
					c4.243,0.08,11.375,2.133,6.882,16.068c-4.619,14.328-4.967,17.822-6.034,25.406c-0.69,4.912-4.545,11.544-8.7,11.662
					c2.531,1.343,5.997,0.887,9.615-2.504c1.023-5.77,1.246-11.957,2.197-15.441c1.029-3.775,7.539-26.925,9.92-35.39
					C118.004,243.932,113.486,243.675,109.794,243.175z"/>
			</g>
			<g>
				<g>
					<path style="fill:#2D2D2D;" d="M153.018,286.25c0.215,7.03,1.445,13.918,7.01,13.91c5.6-0.006,7.094-6.505,6.51-13.558
						C162.603,295.13,156.073,293.31,153.018,286.25z"/>
					<path style="fill:#EDCFB9;" d="M156.144,235.282c-3.358,1.944-7.396,3.782-12.187,5.227c1.501,5.053,4.452,14.87,5.932,19.031
						c2.037,5.724,2.818,7.739,3.121,15.385c0.113,2.861-0.122,7.119,0.008,11.325c3.056,7.06,9.585,8.88,13.52,0.353
						c-0.344-4.139-1.398-8.467-2.76-11.785c-1.292-3.147-0.269-3.947-0.059-5.063c0.213-1.113-0.115-1.656-1.545-2.423
						C160.816,266.603,159.959,254.292,156.144,235.282z"/>
				</g>
				<path style="opacity:0.5;fill:#EDCFB9;" d="M156.144,235.282c-3.358,1.944-7.396,3.782-12.187,5.227
					c0.104,0.352,0.217,0.73,0.334,1.123c5.055-2.484,10.305-2.086,11.725,6.566c1.609,9.82,2.855,17.013,4.492,18.924
					c1.639,1.911,1.467,3.414,0.727,4.611c-0.6,0.968,5.455,15.081-0.637,20.518c2.139-0.286,4.271-2.035,5.939-5.649
					c-0.344-4.139-1.398-8.467-2.76-11.785c-1.292-3.147-0.269-3.947-0.059-5.063c0.213-1.113-0.115-1.656-1.545-2.423
					C160.816,266.603,159.959,254.292,156.144,235.282z"/>
			</g>
			<g>
				<path style="fill:#EDCFB9;" d="M98.69,129.008c0,0-1.461-11.908-1.306-20.984c-14.27,2.643-16.827,14.397-16.827,14.397
					S93.501,125.238,98.69,129.008z"/>
				<path style="opacity:0.5;fill:#EDCFB9;" d="M80.558,122.421c0,0,4.283,0.934,8.911,2.443c2.563-1.026,5.611-2.897,8.253-6.313
					c-0.229-3.397-0.396-7.157-0.337-10.527C83.115,110.666,80.558,122.421,80.558,122.421z"/>
			</g>
			<g>
				<g>
					<path style="fill:#B76F34;" d="M111.697,67.373c-8.002-17.301-31.26-29.788-62.276-9.641
						c-38.878,25.253-20.598,80.215,12.234,71.345c0,0-5.077-1.009-7.888-3.76c-1.421-1.394-1.867-2.787-1.867-2.787
						s-4.771,3.572-8.646-0.226c-3.876-3.799-2.738-9.529,2.926-11.068c0,0-1.493-2.341-3.542-3.963c0,0-3.221-5.532,0.942-13.634
						c0,0-1.41,5.388,0.421,11.238c0,0,2.407-1.714,7.642-4.301c0,0-2.728-11.893,2.918-18.798c0,0-2.175,6.314-0.187,15.05
						c0,0,7.95-4.075,10.648-5.876c0,0-2.802-7.515-0.074-13.841c0,0-0.765,3.945,2.608,10.478l10.775-6.237
						c0,0-0.868-4.083-4.28-9.719c0,0,3.005,1.327,6.389,7.132c0,0,3.672-3.018,7.998-4.946c0,0-3.638-5.431-3.975-10.109
						c0,0,1.626,5.085,5.897,8.278c0,0,1.393-1.829,4.155-3.168c0,0-0.839-2.533-2.327-4.438c0,0,1.438,0.71,3.823,4.567
						c2.385,3.857,3.416,4.746,3.416,4.746s-1.979-3.699,0.765-6.119c2.745-2.423,7.377-0.794,9.087,3.957
						c1.708,4.751-1.611,7.753-4.007,7.448c0,0,4.95,7.657,4.366,16.974C109.637,95.954,119.699,84.673,111.697,67.373z"/>
					<g>
						<path style="fill:#59351A;" d="M34.198,94.416c-0.368,0.563-0.673,1.162-0.96,1.768c-0.132,0.309-0.269,0.613-0.387,0.925
							c-0.109,0.317-0.237,0.626-0.33,0.946c-0.094,0.321-0.212,0.636-0.287,0.961c-0.077,0.325-0.164,0.647-0.231,0.974
							l-0.17,0.986c-0.046,0.329-0.068,0.664-0.102,0.995c-0.044,0.329-0.039,0.663-0.053,0.997
							c-0.003,0.332-0.039,0.663-0.008,0.998l0.05,0.996c0.02,0.334,0.083,0.66,0.125,0.991c0.047,0.33,0.077,0.662,0.164,0.985
							l0.224,0.973c0.061,0.329,0.191,0.64,0.287,0.959l0.299,0.953l-0.369-0.185c0.836-0.252,1.675-0.492,2.514-0.728
							c0.835-0.246,1.68-0.468,2.525-0.685c0.42-0.112,0.845-0.214,1.268-0.317c0.423-0.108,0.849-0.204,1.28-0.281l2.572-0.508
							l-0.105,0.228c-0.148-0.311-0.278-0.614-0.385-0.93c-0.12-0.315-0.212-0.636-0.297-0.958
							c-0.083-0.322-0.155-0.646-0.198-0.977c-0.063-0.327-0.049-0.662-0.076-0.99c0.059,0.327,0.075,0.655,0.168,0.975
							c0.067,0.321,0.16,0.636,0.264,0.945c0.106,0.31,0.219,0.618,0.355,0.914c0.128,0.301,0.28,0.593,0.434,0.871
							c0.042,0.073,0.017,0.167-0.056,0.208c-0.013,0.007-0.024,0.012-0.038,0.015l-0.011,0.004l-2.528,0.617
							c-0.423,0.097-0.841,0.208-1.257,0.336c-0.417,0.124-0.833,0.246-1.253,0.357c-0.837,0.229-1.674,0.462-2.504,0.717
							c-0.833,0.25-1.664,0.499-2.492,0.764l-0.008,0.003c-0.151,0.048-0.311-0.036-0.361-0.188l-0.317-0.981
							c-0.094-0.33-0.224-0.653-0.283-0.994l-0.215-1.009c-0.086-0.334-0.112-0.679-0.158-1.02
							c-0.037-0.343-0.096-0.683-0.113-1.025l-0.038-1.031c-0.025-0.343,0.014-0.686,0.024-1.029
							c0.015-0.343,0.03-0.687,0.087-1.026c0.052-0.339,0.089-0.678,0.151-1.015l0.218-1.003c0.082-0.331,0.186-0.656,0.28-0.983
							c0.091-0.329,0.224-0.644,0.335-0.964c0.111-0.32,0.269-0.626,0.399-0.937c0.142-0.309,0.303-0.608,0.457-0.907
							C33.416,95.515,33.775,94.939,34.198,94.416z"/>
					</g>
					<g>
						<path style="fill:#59351A;" d="M89.203,61.061c0,0,0.446,0.235,1.021,0.719c0.147,0.116,0.294,0.255,0.449,0.404
							c0.156,0.148,0.331,0.297,0.482,0.475c0.317,0.347,0.652,0.72,0.944,1.128c0.146,0.204,0.292,0.408,0.435,0.609
							c0.141,0.199,0.249,0.421,0.373,0.621c0.23,0.409,0.451,0.787,0.582,1.145c0.29,0.695,0.433,1.176,0.433,1.176
							s-0.326-0.391-0.736-1.004c-0.197-0.311-0.466-0.646-0.729-1.022c-0.255-0.379-0.545-0.771-0.842-1.157
							c-0.272-0.404-0.591-0.771-0.862-1.143c-0.137-0.184-0.278-0.354-0.408-0.519c-0.13-0.166-0.253-0.322-0.367-0.469
							C89.513,61.445,89.203,61.061,89.203,61.061z"/>
					</g>
					<path style="opacity:0.6;fill:#B76F34;" d="M111.697,67.373c-8.002-17.301-31.26-29.788-62.276-9.641
						c-38.878,25.253-20.598,80.215,12.234,71.345c0,0-5.077-1.009-7.888-3.76c-1.421-1.394-1.867-2.787-1.867-2.787
						s-4.771,3.572-8.646-0.226c-3.876-3.799-2.738-9.529,2.926-11.068c0,0-1.493-2.341-3.542-3.963c0,0-3.221-5.532,0.942-13.634
						c0,0-1.41,5.388,0.421,11.238c0,0,2.407-1.714,7.642-4.301c0,0-2.728-11.893,2.918-18.798c0,0-2.175,6.314-0.187,15.05
						c0,0,7.95-4.075,10.648-5.876c0,0-2.802-7.515-0.074-13.841c0,0-0.765,3.945,2.608,10.478l10.775-6.237
						c0,0-0.868-4.083-4.28-9.719c0,0,3.005,1.327,6.389,7.132c0,0,3.672-3.018,7.998-4.946c0,0-3.638-5.431-3.975-10.109
						c0,0,1.626,5.085,5.897,8.278c0,0,1.393-1.829,4.155-3.168c0,0-0.839-2.533-2.327-4.438c0,0,1.438,0.71,3.823,4.567
						c2.385,3.857,3.416,4.746,3.416,4.746s-1.979-3.699,0.765-6.119c2.745-2.423,7.377-0.794,9.087,3.957
						c1.708,4.751-1.611,7.753-4.007,7.448c0,0,4.95,7.657,4.366,16.974C109.637,95.954,119.699,84.673,111.697,67.373z
						 M107.54,66.268c-5.177-7.215-13.164-8.61-13.164-8.61c7.009,5.862,3.729,11.126,0.697,7.227
						c-3.033-3.896-8.292-5.493-8.292-5.493c4.823,4.229,5.874,8.339,5.874,8.339l-2.363,2.495
						c-4.356-2.271-6.261-11.194-6.261-11.194c-3.404,7.987,2.136,13.769,2.136,13.769c-2.66,0.904-5.313,3.015-5.313,3.015
						c-5.092-7.05-10.068-5.751-10.068-5.751c3.725,2.797,5.438,10.387,5.438,10.387c-2.521,2.372-8.62,4.217-8.62,4.217
						c-2.439-6.342-2.253-10.101-2.253-10.101c-6.263,5.164-2.331,15.05-2.331,15.05c-4.822,3.404-8.105,4.684-8.105,4.684
						c-1.639-8.542,1.496-15.676,1.496-15.676c-9.737,7.124-6.187,19.166-6.187,19.166c-1.583,1.297-5.208,2.497-5.208,2.497
						c-0.784-7.575,0.006-11.609,0.006-11.609c-7.399,6.886-5.345,16.164-5.345,16.164c-3.25,0.604-7.083,1.86-7.083,1.86
						c-0.97-8.921,2.96-13.665,2.96-13.665c-2.999,1.886-4.119,4.29-5.347,9.444c-1.229,5.155-2.978-6.043-1.6-11.76
						c1.12-4.65,4.559-0.066,23.165-11.791c8.167-5.147,18.154-11.905,25.237-19.297c7.082-7.39,6.843-13.042,19.284-7.737
						C108.734,57.202,110.665,70.619,107.54,66.268z"/>
				</g>
				<g>
					<path style="fill:#EDCFB9;" d="M109.279,71.532c-1.709-4.751-6.342-6.38-9.087-3.957c-2.744,2.42-0.765,6.119-0.765,6.119
						c1.2,1.444,3.346,2.473,5.844,5.286C107.668,79.285,110.987,76.283,109.279,71.532z"/>
					<path style="fill:#EDCFB9;" d="M46.18,111.235c-5.664,1.539-6.803,7.27-2.926,11.068c3.875,3.799,8.646,0.226,8.646,0.226
						c-0.632-1.626-1.004-3.585-2.681-6.694C47.542,112.728,46.18,111.235,46.18,111.235z"/>
					<path style="fill:#F9DBC2;" d="M105.271,78.98c-2.498-2.813-4.644-3.842-5.844-5.286c0,0-1.03-0.889-3.416-4.746
						c-2.385-3.857-3.823-4.567-3.823-4.567c1.488,1.905,2.327,4.438,2.327,4.438c-2.763,1.339-4.155,3.168-4.155,3.168
						c-4.271-3.193-5.897-8.278-5.897-8.278c0.337,4.679,3.975,10.109,3.975,10.109c-4.326,1.929-7.998,4.946-7.998,4.946
						c-3.384-5.805-6.389-7.132-6.389-7.132c3.412,5.636,4.28,9.719,4.28,9.719l-10.775,6.237
						c-3.373-6.532-2.608-10.478-2.608-10.478c-2.729,6.326,0.074,13.841,0.074,13.841c-2.698,1.801-10.648,5.876-10.648,5.876
						c-1.988-8.735,0.187-15.05,0.187-15.05c-5.646,6.905-2.918,18.798-2.918,18.798c-5.235,2.587-7.642,4.301-7.642,4.301
						c-1.831-5.851-0.421-11.238-0.421-11.238c-4.164,8.102-0.942,13.634-0.942,13.634c2.05,1.622,3.542,3.963,3.542,3.963
						s1.362,1.492,3.04,4.601c1.676,3.109,2.048,5.068,2.681,6.694c0,0,0.446,1.394,1.867,2.787c2.811,2.751,7.888,3.76,7.888,3.76
						s13.041,3.648,30.378-7.897c14.728-9.808,17.604-25.226,17.604-25.226C110.222,86.638,105.271,78.98,105.271,78.98z"/>
					<g>
						<g>
							<g>
								<path style="fill:#AD6F44;" d="M43.414,120.427c0,0-0.104-0.148-0.269-0.411c-0.096-0.124-0.154-0.312-0.23-0.528
									c-0.098-0.216-0.115-0.472-0.141-0.757c-0.028-0.145,0.02-0.288,0.028-0.443c0.015-0.155,0.041-0.314,0.11-0.466
									c0.095-0.321,0.282-0.626,0.515-0.906c0.136-0.124,0.267-0.26,0.413-0.377c0.162-0.096,0.33-0.191,0.501-0.281
									c0.188-0.053,0.375-0.104,0.563-0.157c0.193-0.025,0.39-0.021,0.586-0.03c0.197-0.011,0.382,0.066,0.572,0.097
									c0.194,0.027,0.366,0.102,0.536,0.186c0.167,0.08,0.35,0.141,0.495,0.249c0.146,0.105,0.29,0.211,0.433,0.315
									c0.299,0.188,0.489,0.475,0.717,0.692c0.234,0.216,0.368,0.487,0.529,0.706c0.154,0.225,0.297,0.428,0.382,0.635
									c0.096,0.196,0.179,0.369,0.247,0.511c0.135,0.284,0.203,0.449,0.203,0.449s-0.117-0.142-0.304-0.388
									c-0.092-0.125-0.205-0.274-0.334-0.447c-0.12-0.179-0.296-0.347-0.468-0.543c-0.184-0.184-0.343-0.422-0.579-0.604
									c-0.11-0.098-0.224-0.193-0.34-0.295l-0.173-0.154l-0.195-0.127c-0.131-0.084-0.265-0.169-0.399-0.257
									c-0.135-0.086-0.292-0.126-0.435-0.195c-0.144-0.069-0.292-0.128-0.45-0.146c-0.154-0.018-0.307-0.083-0.463-0.069
									c-0.153,0.008-0.311-0.005-0.463,0.014l-0.443,0.111c-0.131,0.073-0.265,0.141-0.401,0.203
									c-0.121,0.087-0.229,0.189-0.343,0.28c-0.195,0.216-0.379,0.441-0.483,0.699c-0.072,0.12-0.102,0.253-0.133,0.381
									c-0.023,0.128-0.088,0.25-0.079,0.375c-0.005,0.248-0.04,0.483,0.011,0.684c0.03,0.202,0.047,0.39,0.119,0.532
									C43.358,120.255,43.414,120.427,43.414,120.427z"/>
							</g>
						</g>
						<g>
							<g>
								<path style="fill:#AD6F44;" d="M45.596,121.149c0,0,0.107-0.003,0.291,0.001c0.046,0.002,0.097,0.004,0.153,0.007
									c0.052-0.009,0.106-0.021,0.166-0.031c0.056-0.01,0.115-0.021,0.178-0.03c0.059-0.025,0.122-0.049,0.186-0.074
									c0.136-0.036,0.245-0.148,0.372-0.226c0.106-0.114,0.219-0.222,0.301-0.373c0.098-0.134,0.151-0.309,0.21-0.477
									c0.022-0.086,0.049-0.173,0.069-0.264l0.031-0.275c0.01-0.186,0.024-0.376-0.008-0.56c-0.015-0.092-0.024-0.184-0.035-0.275
									c-0.023-0.091-0.045-0.178-0.068-0.264c-0.036-0.179-0.122-0.333-0.173-0.494c-0.079-0.151-0.153-0.293-0.222-0.426
									c-0.088-0.117-0.168-0.233-0.239-0.338c-0.067-0.105-0.152-0.176-0.208-0.248c-0.121-0.142-0.191-0.226-0.191-0.226
									s0.095,0.042,0.264,0.13c0.079,0.047,0.196,0.086,0.295,0.174c0.104,0.082,0.224,0.175,0.349,0.287
									c0.108,0.126,0.233,0.262,0.345,0.42c0.09,0.17,0.224,0.338,0.285,0.544c0.081,0.201,0.153,0.414,0.179,0.642
									c0.045,0.223,0.039,0.458,0.032,0.688l-0.052,0.348c-0.027,0.113-0.066,0.224-0.099,0.334
									c-0.026,0.113-0.091,0.215-0.145,0.314c-0.05,0.103-0.109,0.197-0.185,0.282c-0.126,0.188-0.311,0.314-0.475,0.432
									c-0.187,0.087-0.358,0.18-0.537,0.188c-0.087,0.011-0.168,0.025-0.247,0.03c-0.079-0.012-0.153-0.021-0.224-0.03
									c-0.143-0.011-0.248-0.047-0.331-0.089C45.693,121.197,45.596,121.149,45.596,121.149z"/>
							</g>
						</g>
					</g>
					<g>
						<g>
							<path style="fill:#AD6F44;" d="M106.092,76.286c0,0-0.178,0-0.485-0.013c-0.152-0.018-0.343-0.045-0.56-0.083
								c-0.213-0.054-0.458-0.106-0.709-0.22c-0.506-0.207-1.08-0.567-1.521-1.131c-0.453-0.551-0.757-1.284-0.841-2.046
								c-0.067-0.76,0.065-1.56,0.487-2.173c0.203-0.308,0.482-0.552,0.786-0.705c0.3-0.163,0.63-0.202,0.913-0.191
								c0.285,0.01,0.538,0.076,0.743,0.164c0.21,0.075,0.373,0.18,0.512,0.253c0.262,0.173,0.399,0.287,0.399,0.287
								s-0.164-0.066-0.449-0.179c-0.146-0.042-0.317-0.112-0.523-0.14c-0.099-0.025-0.209-0.037-0.321-0.038
								c-0.112-0.013-0.229-0.007-0.348,0.006c-0.236,0.028-0.485,0.094-0.703,0.241c-0.22,0.143-0.408,0.35-0.559,0.598
								c-0.294,0.507-0.401,1.175-0.331,1.817c0.06,0.651,0.307,1.276,0.659,1.781c0.179,0.25,0.377,0.477,0.593,0.664
								c0.213,0.188,0.435,0.351,0.655,0.476c0.438,0.263,0.844,0.407,1.136,0.499C105.922,76.233,106.092,76.286,106.092,76.286z"
								/>
						</g>
						<g>
							<path style="fill:#AD6F44;" d="M102.259,72.395c0,0,0.038,0.083,0.092,0.232c0.023,0.074,0.063,0.164,0.116,0.246
								c0.052,0.086,0.099,0.18,0.181,0.272c0.067,0.1,0.159,0.188,0.258,0.274c0.09,0.098,0.223,0.157,0.335,0.24
								c0.128,0.064,0.259,0.127,0.401,0.171c0.136,0.061,0.292,0.078,0.439,0.104c0.152,0.02,0.303,0.037,0.453,0.024
								c0.151,0.002,0.297-0.025,0.438-0.048c0.138-0.041,0.281-0.059,0.401-0.117c0.128-0.045,0.241-0.104,0.345-0.164
								c0.11-0.055,0.192-0.129,0.276-0.188c0.086-0.058,0.151-0.118,0.203-0.174c0.112-0.106,0.179-0.166,0.179-0.166
								s-0.024,0.085-0.079,0.236c-0.026,0.077-0.061,0.171-0.127,0.261c-0.063,0.093-0.125,0.212-0.232,0.305
								c-0.188,0.218-0.477,0.403-0.815,0.53c-0.172,0.045-0.353,0.116-0.543,0.118c-0.191,0.021-0.384,0.012-0.578-0.008
								c-0.19-0.043-0.385-0.075-0.559-0.158c-0.185-0.062-0.343-0.177-0.496-0.278c-0.14-0.119-0.281-0.235-0.374-0.381
								c-0.048-0.07-0.095-0.137-0.138-0.202c-0.032-0.072-0.062-0.144-0.091-0.211c-0.064-0.129-0.082-0.27-0.1-0.385
								c-0.028-0.118-0.021-0.21-0.013-0.289C102.247,72.484,102.259,72.395,102.259,72.395z"/>
						</g>
					</g>
					<g>
						<g>
							<path style="fill:#AD6F44;" d="M78.852,106.682c0,0-0.186,0.053-0.5,0.169c-0.315,0.108-0.754,0.303-1.233,0.586
								c-0.464,0.29-0.991,0.716-1.159,1.314c-0.09,0.285-0.062,0.641,0.022,0.941c0.093,0.31,0.283,0.581,0.544,0.789
								c0.521,0.426,1.261,0.572,1.931,0.563c0.677-0.014,1.312-0.175,1.828-0.386c0.517-0.21,0.926-0.457,1.197-0.652
								c0.274-0.191,0.424-0.317,0.424-0.317s-0.031,0.04-0.088,0.109c-0.057,0.072-0.138,0.179-0.258,0.3
								c-0.242,0.237-0.599,0.587-1.123,0.877c-0.514,0.298-1.188,0.547-1.949,0.608c-0.753,0.063-1.632-0.072-2.338-0.622
								c-0.345-0.28-0.61-0.676-0.731-1.105c-0.118-0.438-0.109-0.866,0.03-1.275c0.136-0.401,0.398-0.715,0.671-0.944
								c0.272-0.233,0.563-0.391,0.836-0.515c0.548-0.242,1.035-0.327,1.367-0.388C78.658,106.682,78.852,106.682,78.852,106.682z"
								/>
						</g>
					</g>
					<g>
						<path style="fill:#3F1F0F;" d="M88.302,93.671c1.45,1.849,1.937,3.897,1.086,4.579c-0.852,0.682-2.715-0.262-4.169-2.109
							c-1.449-1.848-1.933-3.896-1.082-4.578C84.988,90.88,86.853,91.824,88.302,93.671z"/>
						<path style="fill:#FFFFFF;" d="M86.347,93.192c0.698,0.89,0.934,1.877,0.524,2.203c-0.411,0.329-1.31-0.125-2.007-1.016
							c-0.698-0.889-0.932-1.876-0.523-2.203C84.751,91.85,85.649,92.302,86.347,93.192z"/>
					</g>
					<g>
						<path style="fill:#3F1F0F;" d="M67.95,107.532c1.157,2.047,1.328,4.144,0.382,4.685c-0.944,0.543-2.647-0.677-3.803-2.726
							c-1.156-2.047-1.328-4.146-0.383-4.685C65.09,104.264,66.794,105.483,67.95,107.532z"/>
						<path style="fill:#FFFFFF;" d="M66.088,106.756c0.556,0.985,0.64,1.996,0.184,2.257c-0.455,0.26-1.276-0.328-1.832-1.313
							c-0.556-0.986-0.64-1.996-0.184-2.257C64.711,105.181,65.531,105.769,66.088,106.756z"/>
					</g>
					<g>
						<path style="fill:#FFFFFF;" d="M85.573,115.387c4.86-3.002,5.567-6.471,5.256-8.929c-5.66,5.666-13.609,9.582-16.918,11.065
							C75.931,118.324,79.875,118.908,85.573,115.387z"/>
						<path style="fill:#9E0017;" d="M93.878,114.177c2.412-5.325-0.551-10.541-0.551-10.541c-0.754,0.984-1.599,1.924-2.498,2.822
							c0.311,2.458-0.396,5.927-5.256,8.929c-5.698,3.521-9.642,2.938-11.663,2.137c-0.967,0.432-1.545,0.66-1.545,0.66
							s4.228,6.126,12.119,3.624C85.461,119.444,87.913,115.728,93.878,114.177z"/>
						<path style="fill:#DB7583;" d="M84.483,121.808c1.293-0.41,2.68-1.043,4.166-1.98c2.744-1.731,4.345-3.697,5.229-5.65
							C87.913,115.728,85.461,119.444,84.483,121.808z"/>
					</g>
					<path style="fill:#66564A;" d="M56.225,103.067c0.314,1.462,1.148,2.426,1.086,0.429c-0.062-1.995,2.693-6.754,8.546-3.409
						c0.733,0.417-3.082-3.198-6.046-2.523C56.847,98.24,55.779,100.982,56.225,103.067z"/>
					<path style="fill:#66564A;" d="M77.249,89.212c0.585,1.518,1.597,2.439,1.164,0.319c-0.434-2.121,1.438-7.198,7.9-4.743
						c0.824,0.313-3.674-3.013-6.509-1.908C76.97,83.983,76.414,87.047,77.249,89.212z"/>
				</g>
				<g>
					<g>
						<path style="fill:#2D2D2D;" d="M47.429,55.403c-17.8,11.595-21.642,24.154-21.642,24.154l2.17,3.762l1.849,2.895
							c0,0,5.867,2.537,31.757-15.418c20.627-14.305,21.19-23.334,21.19-23.334l-0.671-0.858l-3.618-4.846
							C78.464,41.758,65.229,43.813,47.429,55.403z"/>
						<path style="fill:#1E1E1E;" d="M91.759,32.338l-53.359,8.6L9.763,84.381c3.541,0.375,18.195-1.062,18.195-1.062l-2.17-3.762
							c0,0,3.842-12.56,21.642-24.154c17.8-11.591,31.035-13.646,31.035-13.646l3.618,4.846l9.311-13.361c0,0,0.3-0.375,0.367-0.902
							L91.759,32.338z"/>
						<g>
							<path style="fill:#333333;" d="M8.916,82.602c0,0-0.628,1.058,0.141,1.61c0.107,0.076,0.351,0.131,0.706,0.169L38.4,40.938
								l-1.033-1.964L8.916,82.602z"/>
							<path style="fill:#2D2D2D;" d="M91.723,31.742c-0.214-0.819-1.121-0.974-3.242-0.729c-6.441,0.742-51.113,7.96-51.113,7.96
								l1.033,1.964l53.359-8.6l0,0.002C91.782,32.156,91.778,31.953,91.723,31.742z"/>
						</g>
					</g>
					<path style="opacity:0.5;fill:#2D2D2D;" d="M82.082,46.604l-3.618-4.846c0,0-13.235,2.055-31.035,13.646
						c-17.8,11.595-21.642,24.154-21.642,24.154l0.337,0.581c2.643-4.749,9.371-14.456,23.94-23.894
						c20.337-13.174,27.5,13.737-20.257,29.969c0,0,5.867,2.537,31.757-15.418c20.627-14.305,21.19-23.334,21.19-23.334
						L82.082,46.604z"/>
					<path style="fill:#1E1E1E;" d="M22.802,76.412l-11.649,8.029c4.965,0.038,16.804-1.122,16.804-1.122l-2.17-3.762
						c0,0,3.842-12.56,21.642-24.154c17.8-11.591,31.035-13.646,31.035-13.646l3.618,4.846l9.311-13.361c0,0,0.3-0.375,0.367-0.902
						l-15.456,7.566C34.686,51.176,22.802,76.412,22.802,76.412z"/>
				</g>
				<g>
					<path style="fill:#B76F34;" d="M45.598,129.697c-0.985,0.744-2.571,1.05-5.131,0.025c-2.652-1.061-3.648-2.454-3.848-3.796
						c-2.19,0.251-6.251,1.179-10.189,4.539c-5.78,4.933-2.421,10.666-0.361,14.622c2.061,3.959-3.725,10.665-9.577,8.688
						c0,0,3.061,5.017,9.133,1.283c0,0-2.364,1.86-1.944,5.52c0,0,1.982,2.048,7.302,1.529c0,0-0.138-3.263,2.315-6.117
						c0,0,1.052,3.142-0.286,5.489c0,0,2.782,0.268,6.92-1.497c0,0,1.438-1.814,0.062-5.984c0,0,2.081,2.339,1.719,5.554
						l3.067-0.949c0,0,1.224-4.61-3.091-9.079c0,0,2.649,2.888,6.099,0.691c0,0-3.938-0.151-3.478-4.566
						C44.757,141.367,53.575,136.617,45.598,129.697z"/>
					<path style="opacity:0.6;fill:#B76F34;" d="M45.598,129.697c-0.505,0.383-1.17,0.646-2.043,0.677
						c4.032,3.906,1.646,8.174-0.875,12.314c-2.844,4.67,1.738,6.754,1.738,6.754s-1.358,0.506-3.148-1.02
						c-1.913-1.631-3.888-1.38-3.888-1.38c5.395,2.522,7.035,9.216,7.035,9.216l-2.3,1.034c-1.581-5.878-5.917-8.084-5.917-8.084
						c3.5,4.639,3.567,9.214,3.567,9.214c-2.562,2.244-5.726,1.771-5.726,1.771c1.365-2.517-0.102-10.163-0.102-10.163
						c-3.6,2.047-4.301,10.561-4.301,10.561c-3.62-0.384-5.146-1.23-5.146-1.23c0.447-2.811,3.613-7.565,4.63-8.823
						c-4.539,5.192-10.356,4.519-10.356,4.519c12.858-3.957,8.19-11.056,6.06-13.98c-0.751-1.033-1.257-2.14-1.558-3.262
						c0.299,2.663,1.724,5.21,2.799,7.273c2.061,3.959-3.725,10.665-9.577,8.688c0,0,3.061,5.017,9.133,1.283
						c0,0-2.364,1.86-1.944,5.52c0,0,1.982,2.048,7.302,1.529c0,0-0.138-3.263,2.315-6.117c0,0,1.052,3.142-0.286,5.489
						c0,0,2.782,0.268,6.92-1.497c0,0,1.438-1.814,0.062-5.984c0,0,2.081,2.339,1.719,5.554l3.067-0.949c0,0,1.224-4.61-3.091-9.079
						c0,0,2.649,2.888,6.099,0.691c0,0-3.938-0.151-3.478-4.566C44.757,141.367,53.575,136.617,45.598,129.697z"/>
				</g>
				<g>
					<path style="fill:#333333;" d="M37.448,122.616c-1.056,1.757-2.11,5.058,3.019,7.106c3.646,1.458,5.319,0.229,6.089-1.139
						C43.136,127.315,40.069,125.264,37.448,122.616z"/>
					<path style="opacity:0.5;fill:#333333;" d="M41.8,126.177c-0.251,1.567-2.419,2.271-4.282,1.636
						c0.606,0.691,1.543,1.349,2.949,1.91c3.646,1.458,5.319,0.229,6.089-1.139C44.88,127.962,43.293,127.15,41.8,126.177z"/>
				</g>
			</g>
			<g>
				<path style="fill:#F9DBC2;" d="M27.636,167.98c0,0-0.571-2.188-5.423-3.158c-4.855-0.97-6.937-4.624-7.834-2.734
					c-0.897,1.891,5.033,5.658,5.033,5.658s-13.517,1.481-13.312,2.829c0.206,1.348,11.931,0.917,11.931,0.917
					s-12.12,4.287-10.739,6.011c1.379,1.723,12.309-2.306,12.309-2.306s-10.491,6.472-9.395,7.96
					c1.095,1.487,12.674-4.891,12.674-4.891s-10.192,7.776-8.709,9.145c1.481,1.366,9.838-5.841,10.66-6.693
					c0.821-0.852,3.442-1.11,5.253-2.102c1.812-0.99,1.312-3.631,2.345-4.058c1.031-0.427,8.687-3.324,8.687-3.324
					c-2.587-2.756-4.846-4.598-6.458-5.753L27.636,167.98z"/>
				<g>
					<path style="fill:#AD6F44;" d="M19.411,167.746c0,0,0.038,0.111,0.104,0.307c0.06,0.192,0.168,0.462,0.28,0.787
						c0.049,0.162,0.134,0.33,0.2,0.513c0.076,0.182,0.137,0.378,0.227,0.57c0.187,0.384,0.327,0.813,0.553,1.202
						c0.193,0.408,0.389,0.814,0.613,1.176c0.107,0.182,0.204,0.364,0.295,0.538c0.088,0.176,0.196,0.323,0.289,0.469
						c0.375,0.569,0.594,0.998,0.594,0.998s-0.367-0.285-0.869-0.782c-0.125-0.125-0.271-0.254-0.382-0.423
						c-0.122-0.161-0.253-0.331-0.378-0.514c-0.12-0.185-0.276-0.359-0.379-0.568c-0.108-0.206-0.217-0.415-0.327-0.624
						c-0.104-0.213-0.21-0.424-0.285-0.646c-0.083-0.219-0.151-0.438-0.225-0.646c-0.08-0.207-0.108-0.422-0.156-0.618
						c-0.044-0.2-0.092-0.383-0.107-0.563C19.356,168.22,19.411,167.746,19.411,167.746z"/>
				</g>
				<path style="opacity:0.5;fill:#EDCFB9;" d="M34.656,165.482l-3.408,1.214c1.658,0.839,4.206,2.46,7.31,5.509
					c1.437-0.547,2.556-0.97,2.556-0.97C38.527,168.48,36.268,166.638,34.656,165.482z"/>
			</g>
			<g>
				<path style="fill:#EDCFB9;" d="M149.419,72.003c-8.73-15.12-9.526-21.634-9.526-21.634s0.109-4.226,0.176-5.052
					c0.068-0.828-2.998-2.224-4.65-3.76c-0.965-0.897-0.266-3.203-0.244-4.716c0.023-1.512,4.904-3.266,5.602-3.596
					c2.088-0.992,1.88,1.759,0.045,3.185c0,0,4.412,2.45,9.416,9.044c0,0-1.228,2.019-3.197,1.983L149.419,72.003z"/>
				<g>
					<path style="fill:#AD6F44;" d="M141.439,35.835c-0.072,0.13-0.16,0.258-0.262,0.368c-0.099,0.117-0.218,0.211-0.326,0.318
						c-0.117,0.097-0.242,0.186-0.365,0.278c-0.125,0.09-0.266,0.149-0.397,0.228c-0.263,0.164-0.561,0.234-0.846,0.352
						c-0.144,0.052-0.292,0.078-0.441,0.113l-0.446,0.103l-0.052-0.564c0.298-0.013,0.566,0.003,0.845,0.034
						c0.277,0.028,0.555,0.064,0.828,0.129c0.271,0.063,0.543,0.134,0.809,0.229c0.268,0.083,0.521,0.213,0.775,0.335
						c0.252,0.132,0.494,0.277,0.718,0.456c0.118,0.078,0.225,0.174,0.328,0.269c0.101,0.101,0.214,0.188,0.301,0.302l0.271,0.326
						c0.078,0.117,0.146,0.242,0.219,0.359c0.16,0.23,0.238,0.51,0.34,0.761l-0.246-0.328c-0.073-0.115-0.158-0.218-0.255-0.313
						c-0.174-0.203-0.374-0.376-0.573-0.544c-0.092-0.092-0.211-0.154-0.315-0.231c-0.102-0.076-0.206-0.152-0.325-0.213
						c-0.22-0.133-0.453-0.242-0.688-0.352c-0.477-0.196-0.971-0.355-1.479-0.458c-0.254-0.053-0.509-0.103-0.766-0.133
						c-0.255-0.033-0.523-0.053-0.766-0.063l-0.014-0.001c-0.154-0.008-0.275-0.14-0.27-0.295c0.004-0.138,0.104-0.249,0.234-0.269
						l0.421-0.065c0.141-0.027,0.283-0.039,0.422-0.067c0.27-0.078,0.557-0.122,0.819-0.229c0.132-0.051,0.275-0.086,0.4-0.15
						c0.129-0.063,0.264-0.116,0.393-0.183c0.119-0.076,0.254-0.141,0.367-0.229C141.212,36.024,141.334,35.942,141.439,35.835z"/>
				</g>
				<path style="opacity:0.5;fill:#EDCFB9;" d="M139.939,48.668c-0.026,0.939-0.047,1.701-0.047,1.701s0.797,6.514,9.526,21.634
					l-1.122-11.581C144.297,55.648,141.545,51.393,139.939,48.668z"/>
			</g>
			<g>
				<path style="fill:#2D2D2D;" d="M75.93,32.855c0,0,1.459-1.592,5.324-0.813c3.865,0.776,14.51,7.882,14.51,7.882l-1.619,1.952
					C94.145,41.876,80.308,32.175,75.93,32.855z"/>
				<path style="fill:#FFCE33;" d="M99.047,46.042l2.597-4.31c0,0-6.142-4.365-7.767-1.749
					C92.048,42.928,99.047,46.042,99.047,46.042z"/>
				<g>
					<path style="fill:#2D2D2D;" d="M99.047,46.042c0,0,6.133,2.393,13.144,8.468c2.604,2.257,3.002,0.249-0.752-2.428
						c-5.911-4.217-12.009-6.675-12.009-6.675L99.047,46.042z"/>
					<path style="fill:#2D2D2D;" d="M99.766,44.85l0.48-0.799c0,0,8.284,3.825,12.407,6.041c4.124,2.219,3.518,3.481,0.501,1.62
						C110.14,49.85,99.766,44.85,99.766,44.85z"/>
					<path style="fill:#2D2D2D;" d="M100.523,43.594l0.421-0.701c0,0,6.97,3.187,11.115,4.522c4.146,1.338,5.481,2.366,4.98,3.134
						c-0.592,0.91-5.064-1.429-7.701-2.688C104.212,45.41,100.523,43.594,100.523,43.594z"/>
					<path style="fill:#2D2D2D;" d="M101.176,42.508l0.467-0.775c0,0,6.926,3.202,14.407,4.892c2.76,0.624,2.223,1.476-0.068,1.148
						C111.033,47.068,101.176,42.508,101.176,42.508z"/>
				</g>
			</g>
		</g>
	</g>
	<path style="fill:#E0E0E0;" d="M99.346,130.117c-7.379,5.66-14.992,7.844-20.704,8.626c9.429,7.144,33.841,27.74,47.574,58.7
		l-0.001-0.002C118.668,164.399,102.762,135.98,99.346,130.117z M123.654,190.715c0,0-13.962-32.114-41.918-51.624
		c0,0,10.341-0.759,17.694-7.694C99.43,131.396,119.612,170.47,123.654,190.715z"/>
	<path style="fill:#E0E0E0;" d="M111.748,114.92c-2.513,5.101-6.392,10.589-12.402,15.197c3.416,5.863,19.322,34.282,26.869,67.324
		C126.229,197.401,138.145,162.91,111.748,114.92z M100.514,130.358c7.497-5.443,10.959-12.187,10.959-12.187
		c19.147,34.642,14.564,73.74,14.564,73.74C116.715,156.318,100.514,130.358,100.514,130.358z"/>
</g>
</svg>
